<?xml version="1.0" standalone="yes"?>

<svg version="1.1" viewBox="0.0 0.0 1280.0 960.0" fill="none" stroke="none" stroke-linecap="square" stroke-miterlimit="10" xmlns="http://www.w3.org/2000/svg" xmlns:xlink="http://www.w3.org/1999/xlink"><clipPath id="p.0"><path d="m0 0l1280.0 0l0 960.0l-1280.0 0l0 -960.0z" clip-rule="nonzero"></path></clipPath><g clip-path="url(#p.0)"><path fill="#000000" fill-opacity="0.0" d="m0 0l1280.0 0l0 960.0l-1280.0 0z" fill-rule="evenodd"></path><path fill="#cfe2f3" d="m270.0 182.50374l0 0c0 -67.10466 54.39908 -121.50374 121.50375 -121.50374l643.9846 0c32.22473 0 63.12976 12.801247 85.91614 35.587624c22.786377 22.78637 35.587524 53.691322 35.587524 85.916115l0 486.00043c0 67.104675 -54.399048 121.50372 -121.50366 121.50372l-643.9846 0c-67.104675 0 -121.50375 -54.399048 -121.50375 -121.50372z" fill-rule="evenodd"></path><path stroke="#000000" stroke-width="3.0" stroke-linejoin="round" stroke-linecap="butt" d="m270.0 182.50374l0 0c0 -67.10466 54.39908 -121.50374 121.50375 -121.50374l643.9846 0c32.22473 0 63.12976 12.801247 85.91614 35.587624c22.786377 22.78637 35.587524 53.691322 35.587524 85.916115l0 486.00043c0 67.104675 -54.399048 121.50372 -121.50366 121.50372l-643.9846 0c-67.104675 0 -121.50375 -54.399048 -121.50375 -121.50372z" fill-rule="evenodd"></path><path fill="#000000" d="m601.75195 123.23723l5.109375 0l0 3.046875q1.0 -1.5625 2.703125 -2.53125q1.703125 -0.984375 3.765625 -0.984375q3.609375 0 6.125 2.84375q2.53125 2.828125 2.53125 7.890625q0 5.1875 -2.546875 8.078125q-2.53125 2.875 -6.140625 2.875q-1.71875 0 -3.125 -0.6875q-1.390625 -0.6875 -2.9375 -2.34375l0 10.453125l-5.484375 0l0 -28.640625zm5.421875 10.03125q0 3.484375 1.390625 5.15625q1.390625 1.671875 3.375 1.671875q1.921875 0 3.1875 -1.53125q1.265625 -1.53125 1.265625 -5.03125q0 -3.265625 -1.3125 -4.84375q-1.296875 -1.578125 -3.234375 -1.578125q-2.015625 0 -3.34375 1.5625q-1.328125 1.546875 -1.328125 4.59375zm17.902344 0.046875q0 -2.734375 1.34375 -5.28125q1.34375 -2.5625 3.8125 -3.90625q2.46875 -1.359375 5.515625 -1.359375q4.71875 0 7.71875 3.0625q3.015625 3.0625 3.015625 7.71875q0 4.71875 -3.046875 7.8125q-3.03125 3.09375 -7.640625 3.09375q-2.859375 0 -5.453125 -1.28125q-2.578125 -1.296875 -3.921875 -3.78125q-1.34375 -2.5 -1.34375 -6.078125zm5.625 0.296875q0 3.09375 1.453125 4.734375q1.46875 1.640625 3.625 1.640625q2.140625 0 3.59375 -1.640625q1.453125 -1.640625 1.453125 -4.765625q0 -3.046875 -1.453125 -4.6875q-1.453125 -1.640625 -3.59375 -1.640625q-2.15625 0 -3.625 1.640625q-1.453125 1.640625 -1.453125 4.71875zm19.667969 -10.375l5.046875 0l0 2.84375q2.71875 -3.3125 6.46875 -3.3125q2.0 0 3.453125 0.828125q1.46875 0.8125 2.40625 2.484375q1.375 -1.671875 2.953125 -2.484375q1.578125 -0.828125 3.375 -0.828125q2.28125 0 3.859375 0.9375q1.59375 0.921875 2.375 2.71875q0.5625 1.328125 0.5625 4.296875l0 13.265625l-5.484375 0l0 -11.859375q0 -3.078125 -0.5625 -3.984375q-0.765625 -1.171875 -2.34375 -1.171875q-1.15625 0 -2.171875 0.703125q-1.015625 0.703125 -1.46875 2.0625q-0.453125 1.359375 -0.453125 4.28125l0 9.96875l-5.484375 0l0 -11.375q0 -3.015625 -0.296875 -3.890625q-0.28125 -0.890625 -0.90625 -1.3125q-0.609375 -0.4375 -1.671875 -0.4375q-1.265625 0 -2.28125 0.6875q-1.015625 0.6875 -1.453125 1.984375q-0.4375 1.28125 -0.4375 4.265625l0 10.078125l-5.484375 0l0 -20.75zm35.816406 0l5.109375 0l0 3.046875q1.0 -1.5625 2.703125 -2.53125q1.703125 -0.984375 3.765625 -0.984375q3.609375 0 6.125 2.84375q2.53125 2.828125 2.53125 7.890625q0 5.1875 -2.546875 8.078125q-2.53125 2.875 -6.140625 2.875q-1.71875 0 -3.125 -0.6875q-1.390625 -0.6875 -2.9375 -2.34375l0 10.453125l-5.484375 0l0 -28.640625zm5.421875 10.03125q0 3.484375 1.390625 5.15625q1.390625 1.671875 3.375 1.671875q1.921875 0 3.1875 -1.53125q1.265625 -1.53125 1.265625 -5.03125q0 -3.265625 -1.3125 -4.84375q-1.296875 -1.578125 -3.234375 -1.578125q-2.015625 0 -3.34375 1.5625q-1.328125 1.546875 -1.328125 4.59375z" fill-rule="nonzero"></path><path fill="#000000" d="m721.9824 143.98723l0 -28.640625l5.703125 0l6.78125 20.28125q0.9375 2.828125 1.359375 4.234375q0.5 -1.5625 1.53125 -4.59375l6.859375 -19.921875l5.09375 0l0 28.640625l-3.65625 0l0 -23.96875l-8.3125 23.96875l-3.421875 0l-8.28125 -24.375l0 24.375l-3.65625 0zm31.679688 -10.375q0 -5.765625 3.203125 -8.53125q2.671875 -2.3125 6.53125 -2.3125q4.265625 0 6.984375 2.8125q2.71875 2.796875 2.71875 7.734375q0 4.015625 -1.203125 6.3125q-1.203125 2.28125 -3.5 3.5625q-2.296875 1.265625 -5.0 1.265625q-4.359375 0 -7.046875 -2.796875q-2.6875 -2.796875 -2.6875 -8.046875zm3.609375 0q0 3.984375 1.734375 5.96875q1.75 1.984375 4.390625 1.984375q2.609375 0 4.34375 -1.984375q1.75 -2.0 1.75 -6.078125q0 -3.859375 -1.75 -5.828125q-1.75 -1.984375 -4.34375 -1.984375q-2.640625 0 -4.390625 1.96875q-1.734375 1.96875 -1.734375 5.953125zm33.402344 10.375l0 -2.625q-1.96875 3.09375 -5.796875 3.09375q-2.484375 0 -4.5625 -1.359375q-2.078125 -1.375 -3.21875 -3.828125q-1.140625 -2.453125 -1.140625 -5.640625q0 -3.09375 1.03125 -5.625q1.03125 -2.53125 3.09375 -3.875q2.078125 -1.359375 4.640625 -1.359375q1.875 0 3.328125 0.796875q1.46875 0.796875 2.390625 2.0625l0 -10.28125l3.5 0l0 28.640625l-3.265625 0zm-11.109375 -10.359375q0 3.984375 1.671875 5.96875q1.6875 1.96875 3.96875 1.96875q2.3125 0 3.921875 -1.875q1.609375 -1.890625 1.609375 -5.765625q0 -4.25 -1.640625 -6.234375q-1.640625 -2.0 -4.046875 -2.0q-2.34375 0 -3.921875 1.921875q-1.5625 1.90625 -1.5625 6.015625zm34.10547 3.671875l3.625 0.453125q-0.859375 3.1875 -3.1875 4.953125q-2.3125 1.75 -5.9375 1.75q-4.546875 0 -7.21875 -2.796875q-2.65625 -2.8125 -2.65625 -7.875q0 -5.234375 2.6875 -8.125q2.703125 -2.890625 7.0 -2.890625q4.15625 0 6.796875 2.84375q2.640625 2.828125 2.640625 7.96875q0 0.3125 -0.03125 0.9375l-15.46875 0q0.203125 3.40625 1.9375 5.234375q1.734375 1.8125 4.34375 1.8125q1.921875 0 3.28125 -1.015625q1.375 -1.015625 2.1875 -3.25zm-11.546875 -5.671875l11.578125 0q-0.234375 -2.625 -1.328125 -3.9375q-1.671875 -2.03125 -4.359375 -2.03125q-2.421875 0 -4.078125 1.625q-1.640625 1.625 -1.8125 4.34375zm19.511658 12.359375l0 -28.640625l3.515625 0l0 28.640625l-3.515625 0z" fill-rule="nonzero"></path><path fill="#b7b7b7" d="m950.98425 463.0l186.01575 0l0 65.00787l-186.01575 0z" fill-rule="evenodd"></path><path fill="#ffffff" d="m983.1511 508.84393l0 -2.421875q-1.828125 2.859375 -5.375 2.859375q-2.28125 0 -4.21875 -1.265625q-1.921875 -1.265625 -2.984375 -3.53125q-1.046875 -2.265625 -1.046875 -5.21875q0 -2.875 0.953125 -5.203125q0.96875 -2.34375 2.875 -3.59375q1.921875 -1.25 4.28125 -1.25q1.734375 0 3.09375 0.734375q1.359375 0.734375 2.203125 1.90625l0 -9.5l3.234375 0l0 26.484375l-3.015625 0zm-10.28125 -9.578125q0 3.6875 1.546875 5.515625q1.5625 1.828125 3.671875 1.828125q2.125 0 3.609375 -1.75q1.5 -1.75 1.5 -5.3125q0 -3.953125 -1.515625 -5.78125q-1.515625 -1.84375 -3.734375 -1.84375q-2.171875 0 -3.625 1.765625q-1.453125 1.765625 -1.453125 5.578125zm18.588257 16.9375l0 -26.546875l2.96875 0l0 2.5q1.046875 -1.46875 2.359375 -2.203125q1.328125 -0.734375 3.203125 -0.734375q2.453125 0 4.328125 1.265625q1.890625 1.265625 2.84375 3.578125q0.953125 2.296875 0.953125 5.046875q0 2.9375 -1.0625 5.296875q-1.046875 2.359375 -3.0625 3.625q-2.015625 1.25 -4.234375 1.25q-1.625 0 -2.921875 -0.6875q-1.296875 -0.6875 -2.125 -1.734375l0 9.34375l-3.25 0zm2.953125 -16.84375q0 3.703125 1.5 5.484375q1.5 1.765625 3.625 1.765625q2.171875 0 3.703125 -1.828125q1.546875 -1.84375 1.546875 -5.6875q0 -3.671875 -1.515625 -5.5q-1.5 -1.828125 -3.59375 -1.828125q-2.078125 0 -3.671875 1.953125q-1.59375 1.9375 -1.59375 5.640625zm17.775757 9.484375l0 -19.1875l2.921875 0l0 2.90625q1.125 -2.03125 2.0625 -2.6875q0.953125 -0.65625 2.09375 -0.65625q1.640625 0 3.34375 1.046875l-1.125 3.015625q-1.1875 -0.703125 -2.375 -0.703125q-1.078125 0 -1.921875 0.640625q-0.84375 0.640625 -1.203125 1.78125q-0.546875 1.734375 -0.546875 3.796875l0 10.046875l-3.25 0zm11.258667 -9.59375q0 -5.328125 2.953125 -7.890625q2.484375 -2.140625 6.03125 -2.140625q3.96875 0 6.46875 2.59375q2.515625 2.59375 2.515625 7.171875q0 3.703125 -1.109375 5.828125q-1.109375 2.109375 -3.234375 3.296875q-2.125 1.171875 -4.640625 1.171875q-4.015625 0 -6.5 -2.578125q-2.484375 -2.59375 -2.484375 -7.453125zm3.34375 0q0 3.6875 1.59375 5.53125q1.609375 1.828125 4.046875 1.828125q2.421875 0 4.03125 -1.84375q1.609375 -1.84375 1.609375 -5.625q0 -3.5625 -1.625 -5.390625q-1.609375 -1.828125 -4.015625 -1.828125q-2.4375 0 -4.046875 1.828125q-1.59375 1.8125 -1.59375 5.5zm31.135132 2.5625l3.203125 0.421875q-0.515625 3.296875 -2.6875 5.171875q-2.15625 1.875 -5.296875 1.875q-3.9375 0 -6.328125 -2.578125q-2.390625 -2.578125 -2.390625 -7.375q0 -3.109375 1.015625 -5.4375q1.03125 -2.34375 3.140625 -3.5q2.109375 -1.171875 4.578125 -1.171875q3.125 0 5.109375 1.59375q2.0 1.578125 2.546875 4.484375l-3.15625 0.484375q-0.453125 -1.9375 -1.609375 -2.90625q-1.140625 -0.984375 -2.765625 -0.984375q-2.453125 0 -4.0 1.765625q-1.53125 1.765625 -1.53125 5.578125q0 3.859375 1.484375 5.625q1.484375 1.75 3.875 1.75q1.90625 0 3.1875 -1.171875q1.28125 -1.1875 1.625 -3.625zm19.289062 0.859375l3.359375 0.40625q-0.796875 2.953125 -2.953125 4.578125q-2.140625 1.625 -5.484375 1.625q-4.21875 0 -6.6875 -2.59375q-2.453125 -2.59375 -2.453125 -7.28125q0 -4.828125 2.484375 -7.5q2.5 -2.6875 6.46875 -2.6875q3.859375 0 6.296875 2.625q2.4375 2.625 2.4375 7.375q0 0.28125 -0.015625 0.859375l-14.3125 0q0.171875 3.171875 1.78125 4.859375q1.609375 1.671875 4.015625 1.671875q1.78125 0 3.046875 -0.9375q1.265625 -0.953125 2.015625 -3.0zm-10.6875 -5.265625l10.71875 0q-0.21875 -2.421875 -1.234375 -3.625q-1.546875 -1.890625 -4.015625 -1.890625q-2.25 0 -3.78125 1.5q-1.515625 1.5 -1.6875 4.015625zm17.010132 5.703125l3.21875 -0.5q0.265625 1.9375 1.5 2.96875q1.234375 1.03125 3.46875 1.03125q2.234375 0 3.3125 -0.90625q1.09375 -0.921875 1.09375 -2.15625q0 -1.09375 -0.96875 -1.734375q-0.65625 -0.4375 -3.3125 -1.09375q-3.578125 -0.90625 -4.96875 -1.5625q-1.375 -0.671875 -2.09375 -1.828125q-0.703125 -1.171875 -0.703125 -2.578125q0 -1.28125 0.578125 -2.375q0.59375 -1.09375 1.59375 -1.8125q0.765625 -0.5625 2.078125 -0.953125q1.3125 -0.390625 2.8125 -0.390625q2.25 0 3.953125 0.65625q1.71875 0.65625 2.53125 1.765625q0.8125 1.109375 1.109375 2.96875l-3.171875 0.4375q-0.21875 -1.484375 -1.265625 -2.3125q-1.03125 -0.84375 -2.921875 -0.84375q-2.25 0 -3.203125 0.75q-0.953125 0.734375 -0.953125 1.734375q0 0.625 0.390625 1.140625q0.40625 0.515625 1.25 0.859375q0.484375 0.1875 2.875 0.828125q3.453125 0.921875 4.8125 1.515625q1.359375 0.578125 2.140625 1.703125q0.78125 1.125 0.78125 2.78125q0 1.625 -0.953125 3.0625q-0.953125 1.4375 -2.75 2.234375q-1.78125 0.78125 -4.03125 0.78125q-3.75 0 -5.703125 -1.546875q-1.953125 -1.5625 -2.5 -4.625zm18.664062 0l3.21875 -0.5q0.265625 1.9375 1.5 2.96875q1.234375 1.03125 3.46875 1.03125q2.234375 0 3.3125 -0.90625q1.09375 -0.921875 1.09375 -2.15625q0 -1.09375 -0.96875 -1.734375q-0.65625 -0.4375 -3.3125 -1.09375q-3.578125 -0.90625 -4.96875 -1.5625q-1.375 -0.671875 -2.09375 -1.828125q-0.703125 -1.171875 -0.703125 -2.578125q0 -1.28125 0.578125 -2.375q0.59375 -1.09375 1.59375 -1.8125q0.765625 -0.5625 2.078125 -0.953125q1.3125 -0.390625 2.8125 -0.390625q2.25 0 3.953125 0.65625q1.71875 0.65625 2.53125 1.765625q0.8125 1.109375 1.109375 2.96875l-3.171875 0.4375q-0.21875 -1.484375 -1.265625 -2.3125q-1.03125 -0.84375 -2.921875 -0.84375q-2.25 0 -3.203125 0.75q-0.953125 0.734375 -0.953125 1.734375q0 0.625 0.390625 1.140625q0.40625 0.515625 1.25 0.859375q0.484375 0.1875 2.875 0.828125q3.453125 0.921875 4.8125 1.515625q1.359375 0.578125 2.140625 1.703125q0.78125 1.125 0.78125 2.78125q0 1.625 -0.953125 3.0625q-0.953125 1.4375 -2.75 2.234375q-1.78125 0.78125 -4.03125 0.78125q-3.75 0 -5.703125 -1.546875q-1.953125 -1.5625 -2.5 -4.625z" fill-rule="nonzero"></path><path fill="#0b5394" d="m732.98425 463.0l193.00787 0l0 65.00787l-193.00787 0z" fill-rule="evenodd"></path><path fill="#ffffff" d="m761.38385 508.84393l0 -2.421875q-1.828125 2.859375 -5.375 2.859375q-2.28125 0 -4.21875 -1.265625q-1.921875 -1.265625 -2.984375 -3.53125q-1.046875 -2.265625 -1.046875 -5.21875q0 -2.875 0.953125 -5.203125q0.96875 -2.34375 2.875 -3.59375q1.921875 -1.25 4.28125 -1.25q1.734375 0 3.09375 0.734375q1.359375 0.734375 2.203125 1.90625l0 -9.5l3.234375 0l0 26.484375l-3.015625 0zm-10.28125 -9.578125q0 3.6875 1.546875 5.515625q1.5625 1.828125 3.671875 1.828125q2.125 0 3.609375 -1.75q1.5 -1.75 1.5 -5.3125q0 -3.953125 -1.515625 -5.78125q-1.515625 -1.84375 -3.734375 -1.84375q-2.171875 0 -3.625 1.765625q-1.453125 1.765625 -1.453125 5.578125zm18.588257 9.578125l0 -19.1875l2.90625 0l0 2.6875q0.90625 -1.40625 2.40625 -2.265625q1.5 -0.859375 3.421875 -0.859375q2.125 0 3.484375 0.890625q1.375 0.890625 1.921875 2.46875q2.28125 -3.359375 5.9375 -3.359375q2.84375 0 4.375 1.59375q1.546875 1.578125 1.546875 4.859375l0 13.171875l-3.234375 0l0 -12.09375q0 -1.9375 -0.3125 -2.796875q-0.3125 -0.859375 -1.15625 -1.375q-0.828125 -0.53125 -1.953125 -0.53125q-2.015625 0 -3.359375 1.34375q-1.328125 1.34375 -1.328125 4.3125l0 11.140625l-3.25 0l0 -12.46875q0 -2.171875 -0.796875 -3.25q-0.796875 -1.078125 -2.609375 -1.078125q-1.375 0 -2.546875 0.71875q-1.15625 0.71875 -1.6875 2.109375q-0.515625 1.390625 -0.515625 4.015625l0 9.953125l-3.25 0zm44.23523 -6.171875l3.359375 0.40625q-0.796875 2.953125 -2.953125 4.578125q-2.140625 1.625 -5.484375 1.625q-4.21875 0 -6.6875 -2.59375q-2.453125 -2.59375 -2.453125 -7.28125q0 -4.828125 2.484375 -7.5q2.5 -2.6875 6.46875 -2.6875q3.859375 0 6.296875 2.625q2.4375 2.625 2.4375 7.375q0 0.28125 -0.015625 0.859375l-14.3125 0q0.171875 3.171875 1.78125 4.859375q1.609375 1.671875 4.015625 1.671875q1.78125 0 3.046875 -0.9375q1.265625 -0.953125 2.015625 -3.0zm-10.6875 -5.265625l10.71875 0q-0.21875 -2.421875 -1.234375 -3.625q-1.546875 -1.890625 -4.015625 -1.890625q-2.25 0 -3.78125 1.5q-1.515625 1.5 -1.6875 4.015625zm30.822632 9.078125q-1.796875 1.53125 -3.46875 2.171875q-1.671875 0.625 -3.59375 0.625q-3.15625 0 -4.859375 -1.546875q-1.6875 -1.546875 -1.6875 -3.953125q0 -1.40625 0.640625 -2.5625q0.640625 -1.171875 1.671875 -1.875q1.046875 -0.703125 2.34375 -1.0625q0.953125 -0.265625 2.890625 -0.5q3.9375 -0.46875 5.796875 -1.109375q0.015625 -0.671875 0.015625 -0.859375q0 -1.984375 -0.921875 -2.796875q-1.25 -1.09375 -3.703125 -1.09375q-2.296875 0 -3.390625 0.796875q-1.09375 0.796875 -1.609375 2.84375l-3.1875 -0.4375q0.4375 -2.03125 1.421875 -3.28125q1.0 -1.265625 2.875 -1.9375q1.890625 -0.6875 4.359375 -0.6875q2.46875 0 4.0 0.578125q1.53125 0.578125 2.25 1.453125q0.734375 0.875 1.015625 2.21875q0.15625 0.828125 0.15625 3.0l0 4.328125q0 4.546875 0.203125 5.75q0.21875 1.1875 0.828125 2.296875l-3.390625 0q-0.5 -1.015625 -0.65625 -2.359375zm-0.265625 -7.265625q-1.765625 0.71875 -5.3125 1.21875q-2.0 0.296875 -2.84375 0.65625q-0.828125 0.359375 -1.28125 1.0625q-0.4375 0.6875 -0.4375 1.53125q0 1.3125 0.984375 2.1875q0.984375 0.859375 2.875 0.859375q1.875 0 3.34375 -0.828125q1.46875 -0.828125 2.15625 -2.25q0.515625 -1.09375 0.515625 -3.25l0 -1.1875zm7.213257 3.890625l3.21875 -0.5q0.265625 1.9375 1.5 2.96875q1.234375 1.03125 3.46875 1.03125q2.234375 0 3.3125 -0.90625q1.09375 -0.921875 1.09375 -2.15625q0 -1.09375 -0.96875 -1.734375q-0.65625 -0.4375 -3.3125 -1.09375q-3.578125 -0.90625 -4.96875 -1.5625q-1.375 -0.671875 -2.09375 -1.828125q-0.703125 -1.171875 -0.703125 -2.578125q0 -1.28125 0.578125 -2.375q0.59375 -1.09375 1.59375 -1.8125q0.765625 -0.5625 2.078125 -0.953125q1.3125 -0.390625 2.8125 -0.390625q2.25 0 3.953125 0.65625q1.71875 0.65625 2.53125 1.765625q0.8125 1.109375 1.109375 2.96875l-3.171875 0.4375q-0.21875 -1.484375 -1.265625 -2.3125q-1.03125 -0.84375 -2.921875 -0.84375q-2.25 0 -3.203125 0.75q-0.953125 0.734375 -0.953125 1.734375q0 0.625 0.390625 1.140625q0.40625 0.515625 1.25 0.859375q0.484375 0.1875 2.875 0.828125q3.453125 0.921875 4.8125 1.515625q1.359375 0.578125 2.140625 1.703125q0.78125 1.125 0.78125 2.78125q0 1.625 -0.953125 3.0625q-0.953125 1.4375 -2.75 2.234375q-1.78125 0.78125 -4.03125 0.78125q-3.75 0 -5.703125 -1.546875q-1.953125 -1.5625 -2.5 -4.625zm32.539062 5.734375l0 -2.8125q-2.25 3.25 -6.09375 3.25q-1.6875 0 -3.171875 -0.65625q-1.46875 -0.65625 -2.1875 -1.640625q-0.703125 -0.984375 -1.0 -2.40625q-0.203125 -0.953125 -0.203125 -3.03125l0 -11.890625l3.265625 0l0 10.640625q0 2.546875 0.1875 3.4375q0.3125 1.28125 1.296875 2.015625q1.0 0.734375 2.46875 0.734375q1.453125 0 2.734375 -0.75q1.296875 -0.75 1.828125 -2.046875q0.53125 -1.296875 0.53125 -3.75l0 -10.28125l3.25 0l0 19.1875l-2.90625 0zm8.150757 0l0 -19.1875l2.921875 0l0 2.90625q1.125 -2.03125 2.0625 -2.6875q0.953125 -0.65625 2.09375 -0.65625q1.640625 0 3.34375 1.046875l-1.125 3.015625q-1.1875 -0.703125 -2.375 -0.703125q-1.078125 0 -1.921875 0.640625q-0.84375 0.640625 -1.203125 1.78125q-0.546875 1.734375 -0.546875 3.796875l0 10.046875l-3.25 0zm25.602478 -6.171875l3.359375 0.40625q-0.796875 2.953125 -2.953125 4.578125q-2.140625 1.625 -5.484375 1.625q-4.21875 0 -6.6875 -2.59375q-2.453125 -2.59375 -2.453125 -7.28125q0 -4.828125 2.484375 -7.5q2.5 -2.6875 6.46875 -2.6875q3.859375 0 6.296875 2.625q2.4375 2.625 2.4375 7.375q0 0.28125 -0.015625 0.859375l-14.3125 0q0.171875 3.171875 1.78125 4.859375q1.609375 1.671875 4.015625 1.671875q1.78125 0 3.046875 -0.9375q1.265625 -0.953125 2.015625 -3.0zm-10.6875 -5.265625l10.71875 0q-0.21875 -2.421875 -1.234375 -3.625q-1.546875 -1.890625 -4.015625 -1.890625q-2.25 0 -3.78125 1.5q-1.515625 1.5 -1.6875 4.015625z" fill-rule="nonzero"></path><path fill="#0b5394" d="m289.99213 463.0l205.98425 0l0 65.00787l-205.98425 0z" fill-rule="evenodd"></path><path fill="#ffffff" d="m323.82364 508.84393l0 -19.1875l2.921875 0l0 2.90625q1.125 -2.03125 2.0625 -2.6875q0.953125 -0.65625 2.09375 -0.65625q1.640625 0 3.34375 1.046875l-1.125 3.015625q-1.1875 -0.703125 -2.375 -0.703125q-1.078125 0 -1.921875 0.640625q-0.84375 0.640625 -1.203125 1.78125q-0.546875 1.734375 -0.546875 3.796875l0 10.046875l-3.25 0zm12.4618225 7.359375l0 -26.546875l2.96875 0l0 2.5q1.046875 -1.46875 2.359375 -2.203125q1.328125 -0.734375 3.203125 -0.734375q2.453125 0 4.328125 1.265625q1.890625 1.265625 2.84375 3.578125q0.953125 2.296875 0.953125 5.046875q0 2.9375 -1.0625 5.296875q-1.046875 2.359375 -3.0625 3.625q-2.015625 1.25 -4.234375 1.25q-1.625 0 -2.921875 -0.6875q-1.296875 -0.6875 -2.125 -1.734375l0 9.34375l-3.25 0zm2.953125 -16.84375q0 3.703125 1.5 5.484375q1.5 1.765625 3.625 1.765625q2.171875 0 3.703125 -1.828125q1.546875 -1.84375 1.546875 -5.6875q0 -3.671875 -1.515625 -5.5q-1.5 -1.828125 -3.59375 -1.828125q-2.078125 0 -3.671875 1.953125q-1.59375 1.9375 -1.59375 5.640625zm17.775757 9.484375l0 -19.1875l2.921875 0l0 2.90625q1.125 -2.03125 2.0625 -2.6875q0.953125 -0.65625 2.09375 -0.65625q1.640625 0 3.34375 1.046875l-1.125 3.015625q-1.1875 -0.703125 -2.375 -0.703125q-1.078125 0 -1.921875 0.640625q-0.84375 0.640625 -1.203125 1.78125q-0.546875 1.734375 -0.546875 3.796875l0 10.046875l-3.25 0zm11.258667 -9.59375q0 -5.328125 2.953125 -7.890625q2.484375 -2.140625 6.03125 -2.140625q3.96875 0 6.46875 2.59375q2.515625 2.59375 2.515625 7.171875q0 3.703125 -1.109375 5.828125q-1.109375 2.109375 -3.234375 3.296875q-2.125 1.171875 -4.640625 1.171875q-4.015625 0 -6.5 -2.578125q-2.484375 -2.59375 -2.484375 -7.453125zm3.34375 0q0 3.6875 1.59375 5.53125q1.609375 1.828125 4.046875 1.828125q2.421875 0 4.03125 -1.84375q1.609375 -1.84375 1.609375 -5.625q0 -3.5625 -1.625 -5.390625q-1.609375 -1.828125 -4.015625 -1.828125q-2.4375 0 -4.046875 1.828125q-1.59375 1.8125 -1.59375 5.5zm31.135132 2.5625l3.203125 0.421875q-0.515625 3.296875 -2.6875 5.171875q-2.15625 1.875 -5.296875 1.875q-3.9375 0 -6.328125 -2.578125q-2.390625 -2.578125 -2.390625 -7.375q0 -3.109375 1.015625 -5.4375q1.03125 -2.34375 3.140625 -3.5q2.109375 -1.171875 4.578125 -1.171875q3.125 0 5.109375 1.59375q2.0 1.578125 2.546875 4.484375l-3.15625 0.484375q-0.453125 -1.9375 -1.609375 -2.90625q-1.140625 -0.984375 -2.765625 -0.984375q-2.453125 0 -4.0 1.765625q-1.53125 1.765625 -1.53125 5.578125q0 3.859375 1.484375 5.625q1.484375 1.75 3.875 1.75q1.90625 0 3.1875 -1.171875q1.28125 -1.1875 1.625 -3.625zm19.289062 0.859375l3.359375 0.40625q-0.796875 2.953125 -2.953125 4.578125q-2.140625 1.625 -5.484375 1.625q-4.21875 0 -6.6875 -2.59375q-2.453125 -2.59375 -2.453125 -7.28125q0 -4.828125 2.484375 -7.5q2.5 -2.6875 6.46875 -2.6875q3.859375 0 6.296875 2.625q2.4375 2.625 2.4375 7.375q0 0.28125 -0.015625 0.859375l-14.3125 0q0.171875 3.171875 1.78125 4.859375q1.609375 1.671875 4.015625 1.671875q1.78125 0 3.046875 -0.9375q1.265625 -0.953125 2.015625 -3.0zm-10.6875 -5.265625l10.71875 0q-0.21875 -2.421875 -1.234375 -3.625q-1.546875 -1.890625 -4.015625 -1.890625q-2.25 0 -3.78125 1.5q-1.515625 1.5 -1.6875 4.015625zm17.010132 5.703125l3.21875 -0.5q0.265625 1.9375 1.5 2.96875q1.234375 1.03125 3.46875 1.03125q2.234375 0 3.3125 -0.90625q1.09375 -0.921875 1.09375 -2.15625q0 -1.09375 -0.96875 -1.734375q-0.65625 -0.4375 -3.3125 -1.09375q-3.578125 -0.90625 -4.96875 -1.5625q-1.375 -0.671875 -2.09375 -1.828125q-0.703125 -1.171875 -0.703125 -2.578125q0 -1.28125 0.578125 -2.375q0.59375 -1.09375 1.59375 -1.8125q0.765625 -0.5625 2.078125 -0.953125q1.3125 -0.390625 2.8125 -0.390625q2.25 0 3.953125 0.65625q1.71875 0.65625 2.53125 1.765625q0.8125 1.109375 1.109375 2.96875l-3.171875 0.4375q-0.21875 -1.484375 -1.265625 -2.3125q-1.03125 -0.84375 -2.921875 -0.84375q-2.25 0 -3.203125 0.75q-0.953125 0.734375 -0.953125 1.734375q0 0.625 0.390625 1.140625q0.40625 0.515625 1.25 0.859375q0.484375 0.1875 2.875 0.828125q3.453125 0.921875 4.8125 1.515625q1.359375 0.578125 2.140625 1.703125q0.78125 1.125 0.78125 2.78125q0 1.625 -0.953125 3.0625q-0.953125 1.4375 -2.75 2.234375q-1.78125 0.78125 -4.03125 0.78125q-3.75 0 -5.703125 -1.546875q-1.953125 -1.5625 -2.5 -4.625zm18.664062 0l3.21875 -0.5q0.265625 1.9375 1.5 2.96875q1.234375 1.03125 3.46875 1.03125q2.234375 0 3.3125 -0.90625q1.09375 -0.921875 1.09375 -2.15625q0 -1.09375 -0.96875 -1.734375q-0.65625 -0.4375 -3.3125 -1.09375q-3.578125 -0.90625 -4.96875 -1.5625q-1.375 -0.671875 -2.09375 -1.828125q-0.703125 -1.171875 -0.703125 -2.578125q0 -1.28125 0.578125 -2.375q0.59375 -1.09375 1.59375 -1.8125q0.765625 -0.5625 2.078125 -0.953125q1.3125 -0.390625 2.8125 -0.390625q2.25 0 3.953125 0.65625q1.71875 0.65625 2.53125 1.765625q0.8125 1.109375 1.109375 2.96875l-3.171875 0.4375q-0.21875 -1.484375 -1.265625 -2.3125q-1.03125 -0.84375 -2.921875 -0.84375q-2.25 0 -3.203125 0.75q-0.953125 0.734375 -0.953125 1.734375q0 0.625 0.390625 1.140625q0.40625 0.515625 1.25 0.859375q0.484375 0.1875 2.875 0.828125q3.453125 0.921875 4.8125 1.515625q1.359375 0.578125 2.140625 1.703125q0.78125 1.125 0.78125 2.78125q0 1.625 -0.953125 3.0625q-0.953125 1.4375 -2.75 2.234375q-1.78125 0.78125 -4.03125 0.78125q-3.75 0 -5.703125 -1.546875q-1.953125 -1.5625 -2.5 -4.625z" fill-rule="nonzero"></path><path fill="#0b5394" d="m514.4803 463.0l200.0 0l0 65.00787l-200.0 0z" fill-rule="evenodd"></path><path fill="#ffffff" d="m538.0564 508.84393l0 -19.1875l2.921875 0l0 2.90625q1.125 -2.03125 2.0625 -2.6875q0.953125 -0.65625 2.09375 -0.65625q1.640625 0 3.34375 1.046875l-1.125 3.015625q-1.1875 -0.703125 -2.375 -0.703125q-1.078125 0 -1.921875 0.640625q-0.84375 0.640625 -1.203125 1.78125q-0.546875 1.734375 -0.546875 3.796875l0 10.046875l-3.25 0zm12.461792 0l0 -19.1875l2.90625 0l0 2.6875q0.90625 -1.40625 2.40625 -2.265625q1.5 -0.859375 3.421875 -0.859375q2.125 0 3.484375 0.890625q1.375 0.890625 1.921875 2.46875q2.28125 -3.359375 5.9375 -3.359375q2.84375 0 4.375 1.59375q1.546875 1.578125 1.546875 4.859375l0 13.171875l-3.234375 0l0 -12.09375q0 -1.9375 -0.3125 -2.796875q-0.3125 -0.859375 -1.15625 -1.375q-0.828125 -0.53125 -1.953125 -0.53125q-2.015625 0 -3.359375 1.34375q-1.328125 1.34375 -1.328125 4.3125l0 11.140625l-3.25 0l0 -12.46875q0 -2.171875 -0.796875 -3.25q-0.796875 -1.078125 -2.609375 -1.078125q-1.375 0 -2.546875 0.71875q-1.15625 0.71875 -1.6875 2.109375q-0.515625 1.390625 -0.515625 4.015625l0 9.953125l-3.25 0zm44.23529 -6.171875l3.359375 0.40625q-0.796875 2.953125 -2.953125 4.578125q-2.140625 1.625 -5.484375 1.625q-4.21875 0 -6.6875 -2.59375q-2.453125 -2.59375 -2.453125 -7.28125q0 -4.828125 2.484375 -7.5q2.5 -2.6875 6.46875 -2.6875q3.859375 0 6.296875 2.625q2.4375 2.625 2.4375 7.375q0 0.28125 -0.015625 0.859375l-14.3125 0q0.171875 3.171875 1.78125 4.859375q1.609375 1.671875 4.015625 1.671875q1.78125 0 3.046875 -0.9375q1.265625 -0.953125 2.015625 -3.0zm-10.6875 -5.265625l10.71875 0q-0.21875 -2.421875 -1.234375 -3.625q-1.546875 -1.890625 -4.015625 -1.890625q-2.25 0 -3.78125 1.5q-1.515625 1.5 -1.6875 4.015625zm30.822632 9.078125q-1.796875 1.53125 -3.46875 2.171875q-1.671875 0.625 -3.59375 0.625q-3.15625 0 -4.859375 -1.546875q-1.6875 -1.546875 -1.6875 -3.953125q0 -1.40625 0.640625 -2.5625q0.640625 -1.171875 1.671875 -1.875q1.046875 -0.703125 2.34375 -1.0625q0.953125 -0.265625 2.890625 -0.5q3.9375 -0.46875 5.796875 -1.109375q0.015625 -0.671875 0.015625 -0.859375q0 -1.984375 -0.921875 -2.796875q-1.25 -1.09375 -3.703125 -1.09375q-2.296875 0 -3.390625 0.796875q-1.09375 0.796875 -1.609375 2.84375l-3.1875 -0.4375q0.4375 -2.03125 1.421875 -3.28125q1.0 -1.265625 2.875 -1.9375q1.890625 -0.6875 4.359375 -0.6875q2.46875 0 4.0 0.578125q1.53125 0.578125 2.25 1.453125q0.734375 0.875 1.015625 2.21875q0.15625 0.828125 0.15625 3.0l0 4.328125q0 4.546875 0.203125 5.75q0.21875 1.1875 0.828125 2.296875l-3.390625 0q-0.5 -1.015625 -0.65625 -2.359375zm-0.265625 -7.265625q-1.765625 0.71875 -5.3125 1.21875q-2.0 0.296875 -2.84375 0.65625q-0.828125 0.359375 -1.28125 1.0625q-0.4375 0.6875 -0.4375 1.53125q0 1.3125 0.984375 2.1875q0.984375 0.859375 2.875 0.859375q1.875 0 3.34375 -0.828125q1.46875 -0.828125 2.15625 -2.25q0.515625 -1.09375 0.515625 -3.25l0 -1.1875zm7.213257 3.890625l3.21875 -0.5q0.265625 1.9375 1.5 2.96875q1.234375 1.03125 3.46875 1.03125q2.234375 0 3.3125 -0.90625q1.09375 -0.921875 1.09375 -2.15625q0 -1.09375 -0.96875 -1.734375q-0.65625 -0.4375 -3.3125 -1.09375q-3.578125 -0.90625 -4.96875 -1.5625q-1.375 -0.671875 -2.09375 -1.828125q-0.703125 -1.171875 -0.703125 -2.578125q0 -1.28125 0.578125 -2.375q0.59375 -1.09375 1.59375 -1.8125q0.765625 -0.5625 2.078125 -0.953125q1.3125 -0.390625 2.8125 -0.390625q2.25 0 3.953125 0.65625q1.71875 0.65625 2.53125 1.765625q0.8125 1.109375 1.109375 2.96875l-3.171875 0.4375q-0.21875 -1.484375 -1.265625 -2.3125q-1.03125 -0.84375 -2.921875 -0.84375q-2.25 0 -3.203125 0.75q-0.953125 0.734375 -0.953125 1.734375q0 0.625 0.390625 1.140625q0.40625 0.515625 1.25 0.859375q0.484375 0.1875 2.875 0.828125q3.453125 0.921875 4.8125 1.515625q1.359375 0.578125 2.140625 1.703125q0.78125 1.125 0.78125 2.78125q0 1.625 -0.953125 3.0625q-0.953125 1.4375 -2.75 2.234375q-1.78125 0.78125 -4.03125 0.78125q-3.75 0 -5.703125 -1.546875q-1.953125 -1.5625 -2.5 -4.625zm32.539 5.734375l0 -2.8125q-2.25 3.25 -6.09375 3.25q-1.6875 0 -3.171875 -0.65625q-1.46875 -0.65625 -2.1875 -1.640625q-0.70306396 -0.984375 -0.99993896 -2.40625q-0.203125 -0.953125 -0.203125 -3.03125l0 -11.890625l3.265564 0l0 10.640625q0 2.546875 0.1875 3.4375q0.3125 1.28125 1.296875 2.015625q1.0 0.734375 2.46875 0.734375q1.453125 0 2.734375 -0.75q1.296875 -0.75 1.828125 -2.046875q0.53125 -1.296875 0.53125 -3.75l0 -10.28125l3.25 0l0 19.1875l-2.90625 0zm8.150757 0l0 -19.1875l2.921875 0l0 2.90625q1.125 -2.03125 2.0625 -2.6875q0.953125 -0.65625 2.09375 -0.65625q1.640625 0 3.34375 1.046875l-1.125 3.015625q-1.1875 -0.703125 -2.375 -0.703125q-1.078125 0 -1.921875 0.640625q-0.84375 0.640625 -1.203125 1.78125q-0.546875 1.734375 -0.546875 3.796875l0 10.046875l-3.25 0zm25.602478 -6.171875l3.359375 0.40625q-0.796875 2.953125 -2.953125 4.578125q-2.140625 1.625 -5.484375 1.625q-4.21875 0 -6.6875 -2.59375q-2.453125 -2.59375 -2.453125 -7.28125q0 -4.828125 2.484375 -7.5q2.5 -2.6875 6.46875 -2.6875q3.859375 0 6.296875 2.625q2.4375 2.625 2.4375 7.375q0 0.28125 -0.015625 0.859375l-14.3125 0q0.171875 3.171875 1.78125 4.859375q1.609375 1.671875 4.015625 1.671875q1.78125 0 3.046875 -0.9375q1.265625 -0.953125 2.015625 -3.0zm-10.6875 -5.265625l10.71875 0q-0.21875 -2.421875 -1.234375 -3.625q-1.546875 -1.890625 -4.015625 -1.890625q-2.25 0 -3.78125 1.5q-1.515625 1.5 -1.6875 4.015625z" fill-rule="nonzero"></path><path fill="#38761d" d="m498.01837 204.0l205.98425 0l0 65.00787l-205.98425 0z" fill-rule="evenodd"></path><path fill="#ffffff" d="m579.57544 249.84393l0 -2.421875q-1.828125 2.859375 -5.375 2.859375q-2.28125 0 -4.21875 -1.265625q-1.921875 -1.265625 -2.984375 -3.53125q-1.046875 -2.265625 -1.046875 -5.21875q0 -2.875 0.953125 -5.203125q0.96875 -2.34375 2.875 -3.59375q1.921875 -1.25 4.28125 -1.25q1.734375 0 3.09375 0.734375q1.359375 0.734375 2.203125 1.90625l0 -9.5l3.234375 0l0 26.484375l-3.015625 0zm-10.28125 -9.578125q0 3.6875 1.546875 5.515625q1.5625 1.828125 3.671875 1.828125q2.125 0 3.609375 -1.75q1.5 -1.75 1.5 -5.3125q0 -3.953125 -1.515625 -5.78125q-1.515625 -1.84375 -3.734375 -1.84375q-2.171875 0 -3.625 1.765625q-1.453125 1.765625 -1.453125 5.578125zm31.103882 7.21875q-1.796875 1.53125 -3.46875 2.171875q-1.671875 0.625 -3.59375 0.625q-3.15625 0 -4.859375 -1.546875q-1.6875 -1.546875 -1.6875 -3.953125q0 -1.40625 0.640625 -2.5625q0.640625 -1.171875 1.671875 -1.875q1.046875 -0.703125 2.34375 -1.0625q0.953125 -0.265625 2.890625 -0.5q3.9375 -0.46875 5.796875 -1.109375q0.015625 -0.671875 0.015625 -0.859375q0 -1.984375 -0.921875 -2.796875q-1.25 -1.09375 -3.703125 -1.09375q-2.296875 0 -3.390625 0.796875q-1.09375 0.796875 -1.609375 2.84375l-3.1875 -0.4375q0.4375 -2.03125 1.421875 -3.28125q1.0 -1.265625 2.875 -1.9375q1.890625 -0.6875 4.359375 -0.6875q2.46875 0 4.0 0.578125q1.53125 0.578125 2.25 1.453125q0.734375 0.875 1.015625 2.21875q0.15625 0.828125 0.15625 3.0l0 4.328125q0 4.546875 0.203125 5.75q0.21875 1.1875 0.828125 2.296875l-3.390625 0q-0.5 -1.015625 -0.65625 -2.359375zm-0.265625 -7.265625q-1.765625 0.71875 -5.3125 1.21875q-2.0 0.296875 -2.84375 0.65625q-0.828125 0.359375 -1.28125 1.0625q-0.4375 0.6875 -0.4375 1.53125q0 1.3125 0.984375 2.1875q0.984375 0.859375 2.875 0.859375q1.875 0 3.34375 -0.828125q1.46875 -0.828125 2.15625 -2.25q0.515625 -1.09375 0.515625 -3.25l0 -1.1875zm15.619507 6.71875l0.46875 2.875q-1.375 0.28125 -2.46875 0.28125q-1.765625 0 -2.75 -0.5625q-0.96875 -0.5625 -1.375 -1.46875q-0.390625 -0.90625 -0.390625 -3.84375l0 -11.03125l-2.375 0l0 -2.53125l2.375 0l0 -4.75l3.234375 -1.953125l0 6.703125l3.28125 0l0 2.53125l-3.28125 0l0 11.21875q0 1.390625 0.171875 1.796875q0.171875 0.390625 0.5625 0.625q0.390625 0.234375 1.109375 0.234375q0.546875 0 1.4375 -0.125zm15.777222 0.546875q-1.796875 1.53125 -3.46875 2.171875q-1.671875 0.625 -3.59375 0.625q-3.15625 0 -4.859375 -1.546875q-1.6875 -1.546875 -1.6875 -3.953125q0 -1.40625 0.640625 -2.5625q0.640625 -1.171875 1.671875 -1.875q1.046875 -0.703125 2.34375 -1.0625q0.953125 -0.265625 2.890625 -0.5q3.9375 -0.46875 5.796875 -1.109375q0.015625 -0.671875 0.015625 -0.859375q0 -1.984375 -0.921875 -2.796875q-1.25 -1.09375 -3.703125 -1.09375q-2.296875 0 -3.390625 0.796875q-1.09375 0.796875 -1.609375 2.84375l-3.1875 -0.4375q0.4375 -2.03125 1.421875 -3.28125q1.0 -1.265625 2.875 -1.9375q1.890625 -0.6875 4.359375 -0.6875q2.46875 0 4.0 0.578125q1.53125 0.578125 2.25 1.453125q0.734375 0.875 1.015625 2.21875q0.15625 0.828125 0.15625 3.0l0 4.328125q0 4.546875 0.203125 5.75q0.21875 1.1875 0.828125 2.296875l-3.390625 0q-0.5 -1.015625 -0.65625 -2.359375zm-0.265625 -7.265625q-1.765625 0.71875 -5.3125 1.21875q-2.0 0.296875 -2.84375 0.65625q-0.828125 0.359375 -1.28125 1.0625q-0.4375 0.6875 -0.4375 1.53125q0 1.3125 0.984375 2.1875q0.984375 0.859375 2.875 0.859375q1.875 0 3.34375 -0.828125q1.46875 -0.828125 2.15625 -2.25q0.515625 -1.09375 0.515625 -3.25l0 -1.1875z" fill-rule="nonzero"></path><path fill="#0b5394" d="m610.50397 538.0l205.98419 0l0 65.00787l-205.98419 0z" fill-rule="evenodd"></path><path fill="#ffffff" d="m643.3434 561.09393l0 -3.734375l3.25 0l0 3.734375l-3.25 0zm0 22.75l0 -19.1875l3.25 0l0 19.1875l-3.25 0zm8.277527 0l0 -19.1875l2.921875 0l0 2.734375q2.125 -3.171875 6.109375 -3.171875q1.734375 0 3.1875 0.625q1.453125 0.625 2.171875 1.640625q0.734375 1.015625 1.015625 2.40625q0.1875 0.890625 0.1875 3.15625l0 11.796875l-3.25 0l0 -11.671875q0 -1.984375 -0.390625 -2.96875q-0.375 -0.984375 -1.34375 -1.5625q-0.953125 -0.59375 -2.265625 -0.59375q-2.078125 0 -3.59375 1.3125q-1.5 1.3125 -1.5 5.0l0 10.484375l-3.25 0zm20.775757 -22.75l0 -3.734375l3.25 0l0 3.734375l-3.25 0zm0 22.75l0 -19.1875l3.25 0l0 19.1875l-3.25 0zm15.386841 -2.90625l0.46875 2.875q-1.375 0.28125 -2.46875 0.28125q-1.765625 0 -2.75 -0.5625q-0.96875 -0.5625 -1.375 -1.46875q-0.390625 -0.90625 -0.390625 -3.84375l0 -11.03125l-2.375 0l0 -2.53125l2.375 0l0 -4.75l3.234375 -1.953125l0 6.703125l3.28125 0l0 2.53125l-3.28125 0l0 11.21875q0 1.390625 0.171875 1.796875q0.171875 0.390625 0.5625 0.625q0.390625 0.234375 1.109375 0.234375q0.546875 0 1.4375 -0.125zm3.2772217 -19.84375l0 -3.734375l3.25 0l0 3.734375l-3.25 0zm0 22.75l0 -19.1875l3.25 0l0 19.1875l-3.25 0zm20.793152 -2.359375q-1.796875 1.53125 -3.46875 2.171875q-1.671875 0.625 -3.59375 0.625q-3.15625 0 -4.859375 -1.546875q-1.6875 -1.546875 -1.6875 -3.953125q0 -1.40625 0.640625 -2.5625q0.640625 -1.171875 1.671875 -1.875q1.046875 -0.703125 2.34375 -1.0625q0.953125 -0.265625 2.890625 -0.5q3.9375 -0.46875 5.796875 -1.109375q0.015625 -0.671875 0.015625 -0.859375q0 -1.984375 -0.921875 -2.796875q-1.25 -1.09375 -3.703125 -1.09375q-2.296875 0 -3.390625 0.796875q-1.09375 0.796875 -1.609375 2.84375l-3.1875 -0.4375q0.4375 -2.03125 1.421875 -3.28125q1.0 -1.265625 2.875 -1.9375q1.890625 -0.6875 4.359375 -0.6875q2.46875 0 4.0 0.578125q1.53125 0.578125 2.25 1.453125q0.734375 0.875 1.015625 2.21875q0.15625 0.828125 0.15625 3.0l0 4.328125q0 4.546875 0.203125 5.75q0.21875 1.1875 0.828125 2.296875l-3.390625 0q-0.5 -1.015625 -0.65625 -2.359375zm-0.265625 -7.265625q-1.765625 0.71875 -5.3125 1.21875q-2.0 0.296875 -2.84375 0.65625q-0.828125 0.359375 -1.28125 1.0625q-0.4375 0.6875 -0.4375 1.53125q0 1.3125 0.984375 2.1875q0.984375 0.859375 2.875 0.859375q1.875 0 3.34375 -0.828125q1.46875 -0.828125 2.15625 -2.25q0.515625 -1.09375 0.515625 -3.25l0 -1.1875zm8.432007 9.625l0 -26.484375l3.265625 0l0 26.484375l-3.265625 0zm8.386841 -22.75l0 -3.734375l3.25 0l0 3.734375l-3.25 0zm0 22.75l0 -19.1875l3.25 0l0 19.1875l-3.25 0zm6.558777 0l0 -2.640625l12.21875 -14.015625q-2.078125 0.109375 -3.671875 0.109375l-7.8125 0l0 -2.640625l15.671875 0l0 2.15625l-10.390625 12.171875l-2.0 2.21875q2.1875 -0.15625 4.09375 -0.15625l8.875 0l0 2.796875l-16.984375 0zm33.523438 -6.171875l3.359375 0.40625q-0.796875 2.953125 -2.953125 4.578125q-2.140625 1.625 -5.484375 1.625q-4.21875 0 -6.6875 -2.59375q-2.453125 -2.59375 -2.453125 -7.28125q0 -4.828125 2.484375 -7.5q2.5 -2.6875 6.46875 -2.6875q3.859375 0 6.296875 2.625q2.4375 2.625 2.4375 7.375q0 0.28125 -0.015625 0.859375l-14.3125 0q0.171875 3.171875 1.78125 4.859375q1.609375 1.671875 4.015625 1.671875q1.78125 0 3.046875 -0.9375q1.265625 -0.953125 2.015625 -3.0zm-10.6875 -5.265625l10.71875 0q-0.21875 -2.421875 -1.234375 -3.625q-1.546875 -1.890625 -4.015625 -1.890625q-2.25 0 -3.78125 1.5q-1.515625 1.5 -1.6875 4.015625zm18.275757 11.4375l0 -19.1875l2.921875 0l0 2.90625q1.125 -2.03125 2.0625 -2.6875q0.953125 -0.65625 2.09375 -0.65625q1.640625 0 3.34375 1.046875l-1.125 3.015625q-1.1875 -0.703125 -2.375 -0.703125q-1.078125 0 -1.921875 0.640625q-0.84375 0.640625 -1.203125 1.78125q-0.546875 1.734375 -0.546875 3.796875l0 10.046875l-3.25 0z" fill-rule="nonzero"></path><path fill="#bf9000" d="m459.4987 338.0l244.50394 0l0 65.00787l-244.50394 0z" fill-rule="evenodd"></path><path fill="#ffffff" d="m475.26584 391.2033l0 -26.546875l2.96875 0l0 2.5q1.046875 -1.46875 2.359375 -2.203125q1.328125 -0.734375 3.203125 -0.734375q2.453125 0 4.328125 1.265625q1.890625 1.265625 2.84375 3.578125q0.953125 2.296875 0.953125 5.046875q0 2.9375 -1.0625 5.296875q-1.046875 2.359375 -3.0625 3.625q-2.015625 1.25 -4.234375 1.25q-1.625 0 -2.921875 -0.6875q-1.296875 -0.6875 -2.125 -1.734375l0 9.34375l-3.25 0zm2.953125 -16.84375q0 3.703125 1.5 5.484375q1.5 1.765625 3.625 1.765625q2.171875 0 3.703125 -1.828125q1.546875 -1.84375 1.546875 -5.6875q0 -3.671875 -1.515625 -5.5q-1.5 -1.828125 -3.59375 -1.828125q-2.078125 0 -3.671875 1.953125q-1.59375 1.9375 -1.59375 5.640625zm30.322632 7.125q-1.796875 1.53125 -3.46875 2.171875q-1.671875 0.625 -3.59375 0.625q-3.15625 0 -4.859375 -1.546875q-1.6875 -1.546875 -1.6875 -3.953125q0 -1.40625 0.640625 -2.5625q0.640625 -1.171875 1.671875 -1.875q1.046875 -0.703125 2.34375 -1.0625q0.953125 -0.265625 2.890625 -0.5q3.9375 -0.46875 5.796875 -1.109375q0.015625 -0.671875 0.015625 -0.859375q0 -1.984375 -0.921875 -2.796875q-1.25 -1.09375 -3.703125 -1.09375q-2.296875 0 -3.390625 0.796875q-1.09375 0.796875 -1.609375 2.84375l-3.1875 -0.4375q0.4375 -2.03125 1.421875 -3.28125q1.0 -1.265625 2.875 -1.9375q1.890625 -0.6875 4.359375 -0.6875q2.46875 0 4.0 0.578125q1.53125 0.578125 2.25 1.453125q0.734375 0.875 1.015625 2.21875q0.15625 0.828125 0.15625 3.0l0 4.328125q0 4.546875 0.203125 5.75q0.21875 1.1875 0.8280945 2.296875l-3.3905945 0q-0.5 -1.015625 -0.65625 -2.359375zm-0.265625 -7.265625q-1.765625 0.71875 -5.3125 1.21875q-2.0 0.296875 -2.84375 0.65625q-0.828125 0.359375 -1.28125 1.0625q-0.4375 0.6875 -0.4375 1.53125q0 1.3125 0.984375 2.1875q0.984375 0.859375 2.875 0.859375q1.875 0 3.34375 -0.828125q1.46875 -0.828125 2.15625 -2.25q0.515625 -1.09375 0.515625 -3.25l0 -1.1875zm8.478851 9.625l0 -19.1875l2.921875 0l0 2.90625q1.125 -2.03125 2.0625 -2.6875q0.953125 -0.65625 2.09375 -0.65625q1.640625 0 3.34375 1.046875l-1.125 3.015625q-1.1875 -0.703125 -2.375 -0.703125q-1.078125 0 -1.921875 0.640625q-0.84375 0.640625 -1.203125 1.78125q-0.546875 1.734375 -0.546875 3.796875l0 10.046875l-3.25 0zm24.977478 -2.359375q-1.796875 1.53125 -3.46875 2.171875q-1.671875 0.625 -3.59375 0.625q-3.15625 0 -4.859375 -1.546875q-1.6875 -1.546875 -1.6875 -3.953125q0 -1.40625 0.640625 -2.5625q0.640625 -1.171875 1.671875 -1.875q1.046875 -0.703125 2.34375 -1.0625q0.953125 -0.265625 2.890625 -0.5q3.9375 -0.46875 5.796875 -1.109375q0.015625 -0.671875 0.015625 -0.859375q0 -1.984375 -0.921875 -2.796875q-1.25 -1.09375 -3.703125 -1.09375q-2.296875 0 -3.390625 0.796875q-1.09375 0.796875 -1.609375 2.84375l-3.1875 -0.4375q0.4375 -2.03125 1.421875 -3.28125q1.0 -1.265625 2.875 -1.9375q1.890625 -0.6875 4.359375 -0.6875q2.46875 0 4.0 0.578125q1.53125 0.578125 2.25 1.453125q0.734375 0.875 1.015625 2.21875q0.15625 0.828125 0.15625 3.0l0 4.328125q0 4.546875 0.203125 5.75q0.21875 1.1875 0.828125 2.296875l-3.390625 0q-0.5 -1.015625 -0.65625 -2.359375zm-0.265625 -7.265625q-1.765625 0.71875 -5.3125 1.21875q-2.0 0.296875 -2.84375 0.65625q-0.828125 0.359375 -1.28125 1.0625q-0.4375 0.6875 -0.4375 1.53125q0 1.3125 0.984375 2.1875q0.984375 0.859375 2.875 0.859375q1.875 0 3.34375 -0.828125q1.46875 -0.828125 2.15625 -2.25q0.515625 -1.09375 0.515625 -3.25l0 -1.1875zm8.510132 9.625l0 -19.1875l2.90625 0l0 2.6875q0.90625 -1.40625 2.40625 -2.265625q1.5 -0.859375 3.421875 -0.859375q2.125 0 3.484375 0.890625q1.375 0.890625 1.921875 2.46875q2.28125 -3.359375 5.9375 -3.359375q2.84375 0 4.375 1.59375q1.546875 1.578125 1.546875 4.859375l0 13.171875l-3.234375 0l0 -12.09375q0 -1.9375 -0.3125 -2.796875q-0.3125 -0.859375 -1.15625 -1.375q-0.828125 -0.53125 -1.953125 -0.53125q-2.015625 0 -3.359375 1.34375q-1.328125 1.34375 -1.328125 4.3125l0 11.140625l-3.25 0l0 -12.46875q0 -2.171875 -0.796875 -3.25q-0.796875 -1.078125 -2.609375 -1.078125q-1.375 0 -2.546875 0.71875q-1.15625 0.71875 -1.6875 2.109375q-0.515625 1.390625 -0.515625 4.015625l0 9.953125l-3.25 0zm31.094604 0l0 -19.1875l2.921875 0l0 2.734375q2.125 -3.171875 6.109375 -3.171875q1.734375 0 3.1875 0.625q1.453125 0.625 2.171875 1.640625q0.734375 1.015625 1.015625 2.40625q0.1875 0.890625 0.1875 3.15625l0 11.796875l-3.25 0l0 -11.671875q0 -1.984375 -0.390625 -2.96875q-0.375 -0.984375 -1.34375 -1.5625q-0.953125 -0.59375 -2.265625 -0.59375q-2.078125 0 -3.59375 1.3125q-1.5 1.3125 -1.5 5.0l0 10.484375l-3.25 0zm33.275757 -2.359375q-1.796875 1.53125 -3.46875 2.171875q-1.671875 0.625 -3.59375 0.625q-3.15625 0 -4.859375 -1.546875q-1.6875 -1.546875 -1.6875 -3.953125q0 -1.40625 0.640625 -2.5625q0.640625 -1.171875 1.671875 -1.875q1.046875 -0.703125 2.34375 -1.0625q0.953125 -0.265625 2.890625 -0.5q3.9375 -0.46875 5.796875 -1.109375q0.015625 -0.671875 0.015625 -0.859375q0 -1.984375 -0.921875 -2.796875q-1.25 -1.09375 -3.703125 -1.09375q-2.296875 0 -3.390625 0.796875q-1.09375 0.796875 -1.609375 2.84375l-3.1875 -0.4375q0.4375 -2.03125 1.421875 -3.28125q1.0 -1.265625 2.875 -1.9375q1.890625 -0.6875 4.359375 -0.6875q2.46875 0 4.0 0.578125q1.53125 0.578125 2.25 1.453125q0.734375 0.875 1.015625 2.21875q0.15625 0.828125 0.15625 3.0l0 4.328125q0 4.546875 0.203125 5.75q0.21875 1.1875 0.828125 2.296875l-3.390625 0q-0.5 -1.015625 -0.65625 -2.359375zm-0.265625 -7.265625q-1.765625 0.71875 -5.3125 1.21875q-2.0 0.296875 -2.84375 0.65625q-0.828125 0.359375 -1.28125 1.0625q-0.4375 0.6875 -0.4375 1.53125q0 1.3125 0.984375 2.1875q0.984375 0.859375 2.875 0.859375q1.875 0 3.34375 -0.828125q1.46875 -0.828125 2.15625 -2.25q0.515625 -1.09375 0.515625 -3.25l0 -1.1875zm8.510132 9.625l0 -19.1875l2.90625 0l0 2.6875q0.90625 -1.40625 2.40625 -2.265625q1.5 -0.859375 3.421875 -0.859375q2.125 0 3.484375 0.890625q1.375 0.890625 1.921875 2.46875q2.28125 -3.359375 5.9375 -3.359375q2.84375 0 4.375 1.59375q1.546875 1.578125 1.546875 4.859375l0 13.171875l-3.234375 0l0 -12.09375q0 -1.9375 -0.3125 -2.796875q-0.3125 -0.859375 -1.15625 -1.375q-0.828125 -0.53125 -1.953125 -0.53125q-2.015625 0 -3.359375 1.34375q-1.328125 1.34375 -1.328125 4.3125l0 11.140625l-3.25 0l0 -12.46875q0 -2.171875 -0.796875 -3.25q-0.796875 -1.078125 -2.609375 -1.078125q-1.375 0 -2.546875 0.71875q-1.15625 0.71875 -1.6875 2.109375q-0.515625 1.390625 -0.515625 4.015625l0 9.953125l-3.25 0zm44.23523 -6.171875l3.359375 0.40625q-0.796875 2.953125 -2.953125 4.578125q-2.140625 1.625 -5.484375 1.625q-4.21875 0 -6.6875 -2.59375q-2.453125 -2.59375 -2.453125 -7.28125q0 -4.828125 2.484375 -7.5q2.5 -2.6875 6.46875 -2.6875q3.859375 0 6.296875 2.625q2.4375 2.625 2.4375 7.375q0 0.28125 -0.015625 0.859375l-14.3125 0q0.171875 3.171875 1.78125 4.859375q1.609375 1.671875 4.015625 1.671875q1.78125 0 3.046875 -0.9375q1.265625 -0.953125 2.015625 -3.0zm-10.6875 -5.265625l10.71875 0q-0.21875 -2.421875 -1.234375 -3.625q-1.546875 -1.890625 -4.015625 -1.890625q-2.25 0 -3.78125 1.5q-1.515625 1.5 -1.6875 4.015625zm17.010132 5.703125l3.21875 -0.5q0.265625 1.9375 1.5 2.96875q1.234375 1.03125 3.46875 1.03125q2.234375 0 3.3125 -0.90625q1.09375 -0.921875 1.09375 -2.15625q0 -1.09375 -0.96875 -1.734375q-0.65625 -0.4375 -3.3125 -1.09375q-3.578125 -0.90625 -4.96875 -1.5625q-1.375 -0.671875 -2.09375 -1.828125q-0.703125 -1.171875 -0.703125 -2.578125q0 -1.28125 0.578125 -2.375q0.59375 -1.09375 1.59375 -1.8125q0.765625 -0.5625 2.078125 -0.953125q1.3125 -0.390625 2.8125 -0.390625q2.25 0 3.953125 0.65625q1.71875 0.65625 2.53125 1.765625q0.8125 1.109375 1.109375 2.96875l-3.171875 0.4375q-0.21875 -1.484375 -1.265625 -2.3125q-1.03125 -0.84375 -2.921875 -0.84375q-2.25 0 -3.203125 0.75q-0.953125 0.734375 -0.953125 1.734375q0 0.625 0.390625 1.140625q0.40625 0.515625 1.25 0.859375q0.484375 0.1875 2.875 0.828125q3.453125 0.921875 4.8125 1.515625q1.359375 0.578125 2.140625 1.703125q0.78125 1.125 0.78125 2.78125q0 1.625 -0.953125 3.0625q-0.953125 1.4375 -2.75 2.234375q-1.78125 0.78125 -4.03125 0.78125q-3.75 0 -5.703125 -1.546875q-1.953125 -1.5625 -2.5 -4.625z" fill-rule="nonzero"></path><path fill="#bf9000" d="m722.9869 338.0l244.5039 0l0 65.00787l-244.5039 0z" fill-rule="evenodd"></path><path fill="#ffffff" d="m749.8968 378.10956l3.21875 -0.5q0.265625 1.9375 1.5 2.96875q1.234375 1.03125 3.46875 1.03125q2.234375 0 3.3125 -0.90625q1.09375 -0.921875 1.09375 -2.15625q0 -1.09375 -0.96875 -1.734375q-0.65625 -0.4375 -3.3125 -1.09375q-3.578125 -0.90625 -4.96875 -1.5625q-1.375 -0.671875 -2.09375 -1.828125q-0.703125 -1.171875 -0.703125 -2.578125q0 -1.28125 0.578125 -2.375q0.59375 -1.09375 1.59375 -1.8125q0.765625 -0.5625 2.078125 -0.953125q1.3125 -0.390625 2.8125 -0.390625q2.25 0 3.953125 0.65625q1.71875 0.65625 2.53125 1.765625q0.8125 1.109375 1.109375 2.96875l-3.171875 0.4375q-0.21875 -1.484375 -1.265625 -2.3125q-1.03125 -0.84375 -2.921875 -0.84375q-2.25 0 -3.203125 0.75q-0.953125 0.734375 -0.953125 1.734375q0 0.625 0.390625 1.140625q0.40625 0.515625 1.25 0.859375q0.484375 0.1875 2.875 0.828125q3.453125 0.921875 4.8125 1.515625q1.359375 0.578125 2.140625 1.703125q0.78125 1.125 0.78125 2.78125q0 1.625 -0.953125 3.0625q-0.953125 1.4375 -2.75 2.234375q-1.78125 0.78125 -4.03125 0.78125q-3.75 0 -5.703125 -1.546875q-1.953125 -1.5625 -2.5 -4.625zm27.070312 2.828125l0.46875 2.875q-1.375 0.28125 -2.46875 0.28125q-1.765625 0 -2.75 -0.5625q-0.96875 -0.5625 -1.375 -1.46875q-0.390625 -0.90625 -0.390625 -3.84375l0 -11.03125l-2.375 0l0 -2.53125l2.375 0l0 -4.75l3.234375 -1.953125l0 6.703125l3.28125 0l0 2.53125l-3.28125 0l0 11.21875q0 1.390625 0.171875 1.796875q0.171875 0.390625 0.5625 0.625q0.390625 0.234375 1.109375 0.234375q0.546875 0 1.4375 -0.125zm15.777222 0.546875q-1.796875 1.53125 -3.46875 2.171875q-1.671875 0.625 -3.59375 0.625q-3.15625 0 -4.859375 -1.546875q-1.6875 -1.546875 -1.6875 -3.953125q0 -1.40625 0.640625 -2.5625q0.640625 -1.171875 1.671875 -1.875q1.046875 -0.703125 2.34375 -1.0625q0.953125 -0.265625 2.890625 -0.5q3.9375 -0.46875 5.796875 -1.109375q0.015625 -0.671875 0.015625 -0.859375q0 -1.984375 -0.921875 -2.796875q-1.25 -1.09375 -3.703125 -1.09375q-2.296875 0 -3.390625 0.796875q-1.09375 0.796875 -1.609375 2.84375l-3.1875 -0.4375q0.4375 -2.03125 1.421875 -3.28125q1.0 -1.265625 2.875 -1.9375q1.890625 -0.6875 4.359375 -0.6875q2.46875 0 4.0 0.578125q1.53125 0.578125 2.25 1.453125q0.734375 0.875 1.015625 2.21875q0.15625 0.828125 0.15625 3.0l0 4.328125q0 4.546875 0.203125 5.75q0.21875 1.1875 0.828125 2.296875l-3.390625 0q-0.5 -1.015625 -0.65625 -2.359375zm-0.265625 -7.265625q-1.765625 0.71875 -5.3125 1.21875q-2.0 0.296875 -2.84375 0.65625q-0.828125 0.359375 -1.28125 1.0625q-0.4375 0.6875 -0.4375 1.53125q0 1.3125 0.984375 2.1875q0.984375 0.859375 2.875 0.859375q1.875 0 3.34375 -0.828125q1.46875 -0.828125 2.15625 -2.25q0.515625 -1.09375 0.515625 -3.25l0 -1.1875zm15.619507 6.71875l0.46875 2.875q-1.375 0.28125 -2.46875 0.28125q-1.765625 0 -2.75 -0.5625q-0.96875 -0.5625 -1.375 -1.46875q-0.390625 -0.90625 -0.390625 -3.84375l0 -11.03125l-2.375 0l0 -2.53125l2.375 0l0 -4.75l3.234375 -1.953125l0 6.703125l3.28125 0l0 2.53125l-3.28125 0l0 11.21875q0 1.390625 0.171875 1.796875q0.171875 0.390625 0.5625 0.625q0.390625 0.234375 1.109375 0.234375q0.546875 0 1.4375 -0.125zm16.402222 -3.265625l3.359375 0.40625q-0.796875 2.953125 -2.953125 4.578125q-2.140625 1.625 -5.484375 1.625q-4.21875 0 -6.6875 -2.59375q-2.453125 -2.59375 -2.453125 -7.28125q0 -4.828125 2.484375 -7.5q2.5 -2.6875 6.46875 -2.6875q3.859375 0 6.296875 2.625q2.4375 2.625 2.4375 7.375q0 0.28125 -0.015625 0.859375l-14.3125 0q0.171875 3.171875 1.78125 4.859375q1.609375 1.671875 4.015625 1.671875q1.78125 0 3.046875 -0.9375q1.265625 -0.953125 2.015625 -3.0zm-10.6875 -5.265625l10.71875 0q-0.21875 -2.421875 -1.234375 -3.625q-1.546875 -1.890625 -4.015625 -1.890625q-2.25 0 -3.78125 1.5q-1.515625 1.5 -1.6875 4.015625zm18.307007 11.4375l0 -19.1875l2.921875 0l0 2.734375q2.125 -3.171875 6.109375 -3.171875q1.734375 0 3.1875 0.625q1.453125 0.625 2.171875 1.640625q0.734375 1.015625 1.015625 2.40625q0.1875 0.890625 0.1875 3.15625l0 11.796875l-3.25 0l0 -11.671875q0 -1.984375 -0.390625 -2.96875q-0.375 -0.984375 -1.34375 -1.5625q-0.953125 -0.59375 -2.265625 -0.59375q-2.078125 0 -3.59375 1.3125q-1.5 1.3125 -1.5 5.0l0 10.484375l-3.25 0zm33.275757 -2.359375q-1.796875 1.53125 -3.46875 2.171875q-1.671875 0.625 -3.59375 0.625q-3.15625 0 -4.859375 -1.546875q-1.6875 -1.546875 -1.6875 -3.953125q0 -1.40625 0.640625 -2.5625q0.640625 -1.171875 1.671875 -1.875q1.046875 -0.703125 2.34375 -1.0625q0.953125 -0.265625 2.890625 -0.5q3.9375 -0.46875 5.796875 -1.109375q0.015625 -0.671875 0.015625 -0.859375q0 -1.984375 -0.921875 -2.796875q-1.25 -1.09375 -3.703125 -1.09375q-2.296875 0 -3.390625 0.796875q-1.09375 0.796875 -1.609375 2.84375l-3.1875 -0.4375q0.4375 -2.03125 1.421875 -3.28125q1.0 -1.265625 2.875 -1.9375q1.890625 -0.6875 4.359375 -0.6875q2.46875 0 4.0 0.578125q1.53125 0.578125 2.25 1.453125q0.734375 0.875 1.015625 2.21875q0.15625 0.828125 0.15625 3.0l0 4.328125q0 4.546875 0.203125 5.75q0.21875 1.1875 0.828125 2.296875l-3.390625 0q-0.5 -1.015625 -0.65625 -2.359375zm-0.265625 -7.265625q-1.765625 0.71875 -5.3125 1.21875q-2.0 0.296875 -2.84375 0.65625q-0.828125 0.359375 -1.28125 1.0625q-0.4375 0.6875 -0.4375 1.53125q0 1.3125 0.984375 2.1875q0.984375 0.859375 2.875 0.859375q1.875 0 3.34375 -0.828125q1.46875 -0.828125 2.15625 -2.25q0.515625 -1.09375 0.515625 -3.25l0 -1.1875zm8.510132 9.625l0 -19.1875l2.90625 0l0 2.6875q0.90625 -1.40625 2.40625 -2.265625q1.5 -0.859375 3.421875 -0.859375q2.125 0 3.484375 0.890625q1.375 0.890625 1.921875 2.46875q2.28125 -3.359375 5.9375 -3.359375q2.84375 0 4.375 1.59375q1.546875 1.578125 1.546875 4.859375l0 13.171875l-3.234375 0l0 -12.09375q0 -1.9375 -0.3125 -2.796875q-0.3125 -0.859375 -1.15625 -1.375q-0.828125 -0.53125 -1.953125 -0.53125q-2.015625 0 -3.359375 1.34375q-1.328125 1.34375 -1.328125 4.3125l0 11.140625l-3.25 0l0 -12.46875q0 -2.171875 -0.796875 -3.25q-0.796875 -1.078125 -2.609375 -1.078125q-1.375 0 -2.546875 0.71875q-1.15625 0.71875 -1.6875 2.109375q-0.515625 1.390625 -0.515625 4.015625l0 9.953125l-3.25 0zm44.23523 -6.171875l3.359375 0.40625q-0.796875 2.953125 -2.953125 4.578125q-2.140625 1.625 -5.484375 1.625q-4.21875 0 -6.6875 -2.59375q-2.453125 -2.59375 -2.453125 -7.28125q0 -4.828125 2.484375 -7.5q2.5 -2.6875 6.46875 -2.6875q3.859375 0 6.296875 2.625q2.4375 2.625 2.4375 7.375q0 0.28125 -0.015625 0.859375l-14.3125 0q0.171875 3.171875 1.78125 4.859375q1.609375 1.671875 4.015625 1.671875q1.78125 0 3.046875 -0.9375q1.265625 -0.953125 2.015625 -3.0zm-10.6875 -5.265625l10.71875 0q-0.21875 -2.421875 -1.234375 -3.625q-1.546875 -1.890625 -4.015625 -1.890625q-2.25 0 -3.78125 1.5q-1.515625 1.5 -1.6875 4.015625zm17.010132 5.703125l3.21875 -0.5q0.265625 1.9375 1.5 2.96875q1.234375 1.03125 3.46875 1.03125q2.234375 0 3.3125 -0.90625q1.09375 -0.921875 1.09375 -2.15625q0 -1.09375 -0.96875 -1.734375q-0.65625 -0.4375 -3.3125 -1.09375q-3.578125 -0.90625 -4.96875 -1.5625q-1.375 -0.671875 -2.09375 -1.828125q-0.703125 -1.171875 -0.703125 -2.578125q0 -1.28125 0.578125 -2.375q0.59375 -1.09375 1.59375 -1.8125q0.765625 -0.5625 2.078125 -0.953125q1.3125 -0.390625 2.8125 -0.390625q2.25 0 3.953125 0.65625q1.71875 0.65625 2.53125 1.765625q0.8125 1.109375 1.109375 2.96875l-3.171875 0.4375q-0.21875 -1.484375 -1.265625 -2.3125q-1.03125 -0.84375 -2.921875 -0.84375q-2.25 0 -3.203125 0.75q-0.953125 0.734375 -0.953125 1.734375q0 0.625 0.390625 1.140625q0.40625 0.515625 1.25 0.859375q0.484375 0.1875 2.875 0.828125q3.453125 0.921875 4.8125 1.515625q1.359375 0.578125 2.140625 1.703125q0.78125 1.125 0.78125 2.78125q0 1.625 -0.953125 3.0625q-0.953125 1.4375 -2.75 2.234375q-1.78125 0.78125 -4.03125 0.78125q-3.75 0 -5.703125 -1.546875q-1.953125 -1.5625 -2.5 -4.625z" fill-rule="nonzero"></path><path fill="#38761d" d="m720.0079 204.0l205.98425 0l0 65.00787l-205.98425 0z" fill-rule="evenodd"></path><path fill="#ffffff" d="m752.88947 242.81268l3.203125 0.421875q-0.515625 3.296875 -2.6875 5.171875q-2.15625 1.875 -5.296875 1.875q-3.9375 0 -6.328125 -2.578125q-2.390625 -2.578125 -2.390625 -7.375q0 -3.109375 1.015625 -5.4375q1.03125 -2.34375 3.140625 -3.5q2.109375 -1.171875 4.578125 -1.171875q3.125 0 5.109375 1.59375q2.0 1.578125 2.546875 4.484375l-3.15625 0.484375q-0.453125 -1.9375 -1.609375 -2.90625q-1.140625 -0.984375 -2.765625 -0.984375q-2.453125 0 -4.0 1.765625q-1.53125 1.765625 -1.53125 5.578125q0 3.859375 1.484375 5.625q1.484375 1.75 3.875 1.75q1.90625 0 3.1875 -1.171875q1.28125 -1.1875 1.625 -3.625zm4.9453125 -2.5625q0 -5.328125 2.953125 -7.890625q2.484375 -2.140625 6.03125 -2.140625q3.96875 0 6.46875 2.59375q2.515625 2.59375 2.515625 7.171875q0 3.703125 -1.109375 5.828125q-1.109375 2.109375 -3.234375 3.296875q-2.125 1.171875 -4.640625 1.171875q-4.015625 0 -6.5 -2.578125q-2.484375 -2.59375 -2.484375 -7.453125zm3.34375 0q0 3.6875 1.59375 5.53125q1.609375 1.828125 4.046875 1.828125q2.421875 0 4.03125 -1.84375q1.609375 -1.84375 1.609375 -5.625q0 -3.5625 -1.625 -5.390625q-1.609375 -1.828125 -4.015625 -1.828125q-2.4375 0 -4.046875 1.828125q-1.59375 1.8125 -1.59375 5.5zm23.947632 9.59375l-7.296875 -19.1875l3.4375 0l4.109375 11.484375q0.671875 1.875 1.234375 3.875q0.4375 -1.515625 1.203125 -3.65625l4.265625 -11.703125l3.34375 0l-7.265625 19.1875l-3.03125 0zm25.851562 -2.359375q-1.796875 1.53125 -3.46875 2.171875q-1.671875 0.625 -3.59375 0.625q-3.15625 0 -4.859375 -1.546875q-1.6875 -1.546875 -1.6875 -3.953125q0 -1.40625 0.640625 -2.5625q0.640625 -1.171875 1.671875 -1.875q1.046875 -0.703125 2.34375 -1.0625q0.953125 -0.265625 2.890625 -0.5q3.9375 -0.46875 5.796875 -1.109375q0.015625 -0.671875 0.015625 -0.859375q0 -1.984375 -0.921875 -2.796875q-1.25 -1.09375 -3.703125 -1.09375q-2.296875 0 -3.390625 0.796875q-1.09375 0.796875 -1.609375 2.84375l-3.1875 -0.4375q0.4375 -2.03125 1.421875 -3.28125q1.0 -1.265625 2.875 -1.9375q1.890625 -0.6875 4.359375 -0.6875q2.46875 0 4.0 0.578125q1.53125 0.578125 2.25 1.453125q0.734375 0.875 1.015625 2.21875q0.15625 0.828125 0.15625 3.0l0 4.328125q0 4.546875 0.203125 5.75q0.21875 1.1875 0.828125 2.296875l-3.390625 0q-0.5 -1.015625 -0.65625 -2.359375zm-0.265625 -7.265625q-1.765625 0.71875 -5.3125 1.21875q-2.0 0.296875 -2.84375 0.65625q-0.828125 0.359375 -1.28125 1.0625q-0.4375 0.6875 -0.4375 1.53125q0 1.3125 0.984375 2.1875q0.984375 0.859375 2.875 0.859375q1.875 0 3.34375 -0.828125q1.46875 -0.828125 2.15625 -2.25q0.515625 -1.09375 0.515625 -3.25l0 -1.1875zm8.478882 9.625l0 -19.1875l2.921875 0l0 2.90625q1.125 -2.03125 2.0625 -2.6875q0.953125 -0.65625 2.09375 -0.65625q1.640625 0 3.34375 1.046875l-1.125 3.015625q-1.1875 -0.703125 -2.375 -0.703125q-1.078125 0 -1.921875 0.640625q-0.84375 0.640625 -1.203125 1.78125q-0.546875 1.734375 -0.546875 3.796875l0 10.046875l-3.25 0zm12.477417 -22.75l0 -3.734375l3.25 0l0 3.734375l-3.25 0zm0 22.75l0 -19.1875l3.25 0l0 19.1875l-3.25 0zm20.793152 -2.359375q-1.796875 1.53125 -3.46875 2.171875q-1.671875 0.625 -3.59375 0.625q-3.15625 0 -4.859375 -1.546875q-1.6875 -1.546875 -1.6875 -3.953125q0 -1.40625 0.640625 -2.5625q0.640625 -1.171875 1.671875 -1.875q1.046875 -0.703125 2.34375 -1.0625q0.953125 -0.265625 2.890625 -0.5q3.9375 -0.46875 5.796875 -1.109375q0.015625 -0.671875 0.015625 -0.859375q0 -1.984375 -0.921875 -2.796875q-1.25 -1.09375 -3.703125 -1.09375q-2.296875 0 -3.390625 0.796875q-1.09375 0.796875 -1.609375 2.84375l-3.1875 -0.4375q0.4375 -2.03125 1.421875 -3.28125q1.0 -1.265625 2.875 -1.9375q1.890625 -0.6875 4.359375 -0.6875q2.46875 0 4.0 0.578125q1.53125 0.578125 2.25 1.453125q0.734375 0.875 1.015625 2.21875q0.15625 0.828125 0.15625 3.0l0 4.328125q0 4.546875 0.203125 5.75q0.21875 1.1875 0.828125 2.296875l-3.390625 0q-0.5 -1.015625 -0.65625 -2.359375zm-0.265625 -7.265625q-1.765625 0.71875 -5.3125 1.21875q-2.0 0.296875 -2.84375 0.65625q-0.828125 0.359375 -1.28125 1.0625q-0.4375 0.6875 -0.4375 1.53125q0 1.3125 0.984375 2.1875q0.984375 0.859375 2.875 0.859375q1.875 0 3.34375 -0.828125q1.46875 -0.828125 2.15625 -2.25q0.515625 -1.09375 0.515625 -3.25l0 -1.1875zm15.619507 6.71875l0.46875 2.875q-1.375 0.28125 -2.46875 0.28125q-1.765625 0 -2.75 -0.5625q-0.96875 -0.5625 -1.375 -1.46875q-0.390625 -0.90625 -0.390625 -3.84375l0 -11.03125l-2.375 0l0 -2.53125l2.375 0l0 -4.75l3.234375 -1.953125l0 6.703125l3.28125 0l0 2.53125l-3.28125 0l0 11.21875q0 1.390625 0.171875 1.796875q0.171875 0.390625 0.5625 0.625q0.390625 0.234375 1.109375 0.234375q0.546875 0 1.4375 -0.125zm16.40216 -3.265625l3.359375 0.40625q-0.796875 2.953125 -2.953125 4.578125q-2.140625 1.625 -5.484375 1.625q-4.21875 0 -6.6875 -2.59375q-2.453125 -2.59375 -2.453125 -7.28125q0 -4.828125 2.484375 -7.5q2.5 -2.6875 6.46875 -2.6875q3.859375 0 6.296875 2.625q2.4375 2.625 2.4375 7.375q0 0.28125 -0.015625 0.859375l-14.3125 0q0.171875 3.171875 1.78125 4.859375q1.609375 1.671875 4.015625 1.671875q1.78125 0 3.046875 -0.9375q1.265625 -0.953125 2.015625 -3.0zm-10.6875 -5.265625l10.71875 0q-0.21875 -2.421875 -1.234375 -3.625q-1.546875 -1.890625 -4.015625 -1.890625q-2.25 0 -3.78125 1.5q-1.515625 1.5 -1.6875 4.015625zm17.010132 5.703125l3.21875 -0.5q0.265625 1.9375 1.5 2.96875q1.234375 1.03125 3.46875 1.03125q2.234375 0 3.3125 -0.90625q1.09375 -0.921875 1.09375 -2.15625q0 -1.09375 -0.96875 -1.734375q-0.65625 -0.4375 -3.3125 -1.09375q-3.578125 -0.90625 -4.96875 -1.5625q-1.375 -0.671875 -2.09375 -1.828125q-0.703125 -1.171875 -0.703125 -2.578125q0 -1.28125 0.578125 -2.375q0.59375 -1.09375 1.59375 -1.8125q0.765625 -0.5625 2.078125 -0.953125q1.3125 -0.390625 2.8125 -0.390625q2.25 0 3.953125 0.65625q1.71875 0.65625 2.53125 1.765625q0.8125 1.109375 1.109375 2.96875l-3.171875 0.4375q-0.21875 -1.484375 -1.265625 -2.3125q-1.03125 -0.84375 -2.921875 -0.84375q-2.25 0 -3.203125 0.75q-0.953125 0.734375 -0.953125 1.734375q0 0.625 0.390625 1.140625q0.40625 0.515625 1.25 0.859375q0.484375 0.1875 2.875 0.828125q3.453125 0.921875 4.8125 1.515625q1.359375 0.578125 2.140625 1.703125q0.78125 1.125 0.78125 2.78125q0 1.625 -0.953125 3.0625q-0.953125 1.4375 -2.75 2.234375q-1.78125 0.78125 -4.03125 0.78125q-3.75 0 -5.703125 -1.546875q-1.953125 -1.5625 -2.5 -4.625z" fill-rule="nonzero"></path><path fill="#990000" d="m358.53806 657.0l347.46457 0l0 65.00787l-347.46457 0z" fill-rule="evenodd"></path><path fill="#ffffff" d="m392.43176 699.9377l0.46875 2.875q-1.375 0.28125 -2.46875 0.28125q-1.765625 0 -2.75 -0.5625q-0.96875 -0.5625 -1.375 -1.46875q-0.390625 -0.90625 -0.390625 -3.84375l0 -11.03125l-2.375 0l0 -2.53125l2.375 0l0 -4.75l3.234375 -1.953125l0 6.703125l3.28125 0l0 2.53125l-3.28125 0l0 11.21875q0 1.390625 0.171875 1.796875q0.171875 0.390625 0.5625 0.625q0.390625 0.234375 1.109375 0.234375q0.546875 0 1.4375 -0.125zm2.0584717 -6.6875q0 -5.328125 2.953125 -7.890625q2.484375 -2.140625 6.03125 -2.140625q3.96875 0 6.46875 2.59375q2.515625 2.59375 2.515625 7.171875q0 3.703125 -1.109375 5.828125q-1.109375 2.109375 -3.234375 3.296875q-2.125 1.171875 -4.640625 1.171875q-4.015625 0 -6.5 -2.578125q-2.484375 -2.59375 -2.484375 -7.453125zm3.34375 0q0 3.6875 1.59375 5.53125q1.609375 1.828125 4.046875 1.828125q2.421875 0 4.03125 -1.84375q1.609375 -1.84375 1.609375 -5.625q0 -3.5625 -1.625 -5.390625q-1.609375 -1.828125 -4.015625 -1.828125q-2.4375 0 -4.046875 1.828125q-1.59375 1.8125 -1.59375 5.5zm19.103882 9.59375l0 -26.484375l19.15625 0l0 3.125l-15.640625 0l0 8.109375l14.640625 0l0 3.109375l-14.640625 0l0 9.015625l16.25 0l0 3.125l-19.765625 0zm23.116302 -5.734375l3.21875 -0.5q0.265625 1.9375 1.5 2.96875q1.234375 1.03125 3.46875 1.03125q2.234375 0 3.3125 -0.90625q1.09375 -0.921875 1.09375 -2.15625q0 -1.09375 -0.96875 -1.734375q-0.65625 -0.4375 -3.3125 -1.09375q-3.578125 -0.90625 -4.96875 -1.5625q-1.375 -0.671875 -2.09375 -1.828125q-0.703125 -1.171875 -0.703125 -2.578125q0 -1.28125 0.578125 -2.375q0.59375 -1.09375 1.59375 -1.8125q0.765625 -0.5625 2.078125 -0.953125q1.3125 -0.390625 2.8125 -0.390625q2.25 0 3.953125 0.65625q1.71875 0.65625 2.53125 1.765625q0.8125 1.109375 1.109375 2.96875l-3.171875 0.4375q-0.21875 -1.484375 -1.265625 -2.3125q-1.03125 -0.84375 -2.921875 -0.84375q-2.25 0 -3.203125 0.75q-0.953125 0.734375 -0.953125 1.734375q0 0.625 0.390625 1.140625q0.40625 0.515625 1.25 0.859375q0.484375 0.1875 2.875 0.828125q3.453125 0.921875 4.8125 1.515625q1.359375 0.578125 2.140625 1.703125q0.78125 1.125 0.78125 2.78125q0 1.625 -0.953125 3.0625q-0.953125 1.4375 -2.75 2.234375q-1.78125 0.78125 -4.03125 0.78125q-3.75 0 -5.703125 -1.546875q-1.953125 -1.5625 -2.5 -4.625zm27.070312 2.828125l0.46875 2.875q-1.375 0.28125 -2.46875 0.28125q-1.765625 0 -2.75 -0.5625q-0.96875 -0.5625 -1.375 -1.46875q-0.390625 -0.90625 -0.390625 -3.84375l0 -11.03125l-2.375 0l0 -2.53125l2.375 0l0 -4.75l3.234375 -1.953125l0 6.703125l3.28125 0l0 2.53125l-3.28125 0l0 11.21875q0 1.390625 0.171875 1.796875q0.171875 0.390625 0.5625 0.625q0.390625 0.234375 1.109375 0.234375q0.546875 0 1.4375 -0.125zm3.2772217 -19.84375l0 -3.734375l3.25 0l0 3.734375l-3.25 0zm0 22.75l0 -19.1875l3.25 0l0 19.1875l-3.25 0zm8.277496 0l0 -19.1875l2.90625 0l0 2.6875q0.90625 -1.40625 2.40625 -2.265625q1.5 -0.859375 3.421875 -0.859375q2.125 0 3.484375 0.890625q1.375 0.890625 1.921875 2.46875q2.28125 -3.359375 5.9375 -3.359375q2.84375 0 4.375 1.59375q1.546875 1.578125 1.546875 4.859375l0 13.171875l-3.234375 0l0 -12.09375q0 -1.9375 -0.3125 -2.796875q-0.3125 -0.859375 -1.15625 -1.375q-0.828125 -0.53125 -1.953125 -0.53125q-2.015625 0 -3.359375 1.34375q-1.328125 1.34375 -1.328125 4.3125l0 11.140625l-3.25 0l0 -12.46875q0 -2.171875 -0.796875 -3.25q-0.796875 -1.078125 -2.609375 -1.078125q-1.375 0 -2.546875 0.71875q-1.15625 0.71875 -1.6875 2.109375q-0.515625 1.390625 -0.515625 4.015625l0 9.953125l-3.25 0zm43.61023 -2.359375q-1.796875 1.53125 -3.46875 2.171875q-1.671875 0.625 -3.59375 0.625q-3.15625 0 -4.859375 -1.546875q-1.6875 -1.546875 -1.6875 -3.953125q0 -1.40625 0.640625 -2.5625q0.640625 -1.171875 1.671875 -1.875q1.046875 -0.703125 2.34375 -1.0625q0.953125 -0.265625 2.890625 -0.5q3.9375 -0.46875 5.796875 -1.109375q0.015625 -0.671875 0.015625 -0.859375q0 -1.984375 -0.921875 -2.796875q-1.25 -1.09375 -3.703125 -1.09375q-2.296875 0 -3.390625 0.796875q-1.09375 0.796875 -1.609375 2.84375l-3.1875 -0.4375q0.4375 -2.03125 1.421875 -3.28125q1.0 -1.265625 2.875 -1.9375q1.890625 -0.6875 4.359375 -0.6875q2.46875 0 4.0 0.578125q1.53125 0.578125 2.25 1.453125q0.734375 0.875 1.015625 2.21875q0.15625 0.828125 0.15625 3.0l0 4.328125q0 4.546875 0.203125 5.75q0.21875 1.1875 0.828125 2.296875l-3.390625 0q-0.5 -1.015625 -0.65625 -2.359375zm-0.265625 -7.265625q-1.765625 0.71875 -5.3125 1.21875q-2.0 0.296875 -2.84375 0.65625q-0.828125 0.359375 -1.28125 1.0625q-0.4375 0.6875 -0.4375 1.53125q0 1.3125 0.984375 2.1875q0.984375 0.859375 2.875 0.859375q1.875 0 3.34375 -0.828125q1.46875 -0.828125 2.15625 -2.25q0.515625 -1.09375 0.515625 -3.25l0 -1.1875zm15.619507 6.71875l0.46875 2.875q-1.375 0.28125 -2.46875 0.28125q-1.765625 0 -2.75 -0.5625q-0.96875 -0.5625 -1.375 -1.46875q-0.390625 -0.90625 -0.390625 -3.84375l0 -11.03125l-2.375 0l0 -2.53125l2.375 0l0 -4.75l3.234375 -1.953125l0 6.703125l3.28125 0l0 2.53125l-3.28125 0l0 11.21875q0 1.390625 0.171875 1.796875q0.171875 0.390625 0.5625 0.625q0.390625 0.234375 1.109375 0.234375q0.546875 0 1.4375 -0.125zm3.2772217 -19.84375l0 -3.734375l3.25 0l0 3.734375l-3.25 0zm0 22.75l0 -19.1875l3.25 0l0 19.1875l-3.25 0zm7.074341 -9.59375q0 -5.328125 2.953125 -7.890625q2.484375 -2.140625 6.03125 -2.140625q3.96875 0 6.46875 2.59375q2.515625 2.59375 2.515625 7.171875q0 3.703125 -1.109375 5.828125q-1.109375 2.109375 -3.234375 3.296875q-2.125 1.171875 -4.640625 1.171875q-4.015625 0 -6.5 -2.578125q-2.484375 -2.59375 -2.484375 -7.453125zm3.34375 0q0 3.6875 1.59375 5.53125q1.609375 1.828125 4.046875 1.828125q2.421875 0 4.03125 -1.84375q1.609375 -1.84375 1.609375 -5.625q0 -3.5625 -1.625 -5.390625q-1.609375 -1.828125 -4.015625 -1.828125q-2.4375 0 -4.046875 1.828125q-1.59375 1.8125 -1.59375 5.5zm18.619507 9.59375l0 -19.1875l2.921875 0l0 2.734375q2.125 -3.171875 6.109375 -3.171875q1.734375 0 3.1875 0.625q1.453125 0.625 2.171875 1.640625q0.734375 1.015625 1.015625 2.40625q0.1875 0.890625 0.1875 3.15625l0 11.796875l-3.25 0l0 -11.671875q0 -1.984375 -0.390625 -2.96875q-0.375 -0.984375 -1.34375 -1.5625q-0.953125 -0.59375 -2.265625 -0.59375q-2.078125 0 -3.59375 1.3125q-1.5 1.3125 -1.5 5.0l0 10.484375l-3.25 0zm19.978882 -8.515625l3.3125 -0.28125q0.234375 1.984375 1.09375 3.265625q0.859375 1.265625 2.65625 2.0625q1.8125 0.78125 4.078125 0.78125q2.0 0 3.53125 -0.59375q1.546875 -0.609375 2.296875 -1.640625q0.75 -1.046875 0.75 -2.265625q0 -1.25 -0.734375 -2.171875q-0.71875 -0.9375 -2.375 -1.578125q-1.078125 -0.40625 -4.734375 -1.28125q-3.640625 -0.875 -5.09375 -1.65625q-1.90625 -1.0 -2.84375 -2.46875q-0.921875 -1.46875 -0.921875 -3.296875q0 -2.0 1.140625 -3.734375q1.140625 -1.75 3.328125 -2.65625q2.1875 -0.90625 4.859375 -0.90625q2.9375 0 5.1875 0.953125q2.25 0.9375 3.453125 2.78125q1.21875 1.84375 1.3125 4.171875l-3.359375 0.265625q-0.28125 -2.515625 -1.84375 -3.796875q-1.5625 -1.28125 -4.609375 -1.28125q-3.171875 0 -4.640625 1.171875q-1.453125 1.15625 -1.453125 2.796875q0 1.421875 1.03125 2.34375q1.015625 0.921875 5.28125 1.890625q4.28125 0.96875 5.875 1.6875q2.3125 1.078125 3.40625 2.71875q1.109375 1.625 1.109375 3.75q0 2.125 -1.21875 4.0q-1.203125 1.859375 -3.46875 2.90625q-2.265625 1.03125 -5.109375 1.03125q-3.59375 0 -6.03125 -1.046875q-2.421875 -1.046875 -3.8125 -3.15625q-1.375 -2.109375 -1.453125 -4.765625zm38.194458 1.484375l3.203125 0.421875q-0.515625 3.296875 -2.6875 5.171875q-2.15625 1.875 -5.296875 1.875q-3.9375 0 -6.328125 -2.578125q-2.390625 -2.578125 -2.390625 -7.375q0 -3.109375 1.015625 -5.4375q1.03125 -2.34375 3.140625 -3.5q2.109375 -1.171875 4.578125 -1.171875q3.125 0 5.109375 1.59375q2.0 1.578125 2.546875 4.484375l-3.15625 0.484375q-0.453125 -1.9375 -1.609375 -2.90625q-1.140625 -0.984375 -2.765625 -0.984375q-2.453125 0 -4.0 1.765625q-1.53125 1.765625 -1.53125 5.578125q0 3.859375 1.484375 5.625q1.484375 1.75 3.875 1.75q1.90625 0 3.1875 -1.171875q1.28125 -1.1875 1.625 -3.625zm18.664062 4.671875q-1.796875 1.53125 -3.46875 2.171875q-1.671875 0.625 -3.59375 0.625q-3.15625 0 -4.859375 -1.546875q-1.6875 -1.546875 -1.6875 -3.953125q0 -1.40625 0.640625 -2.5625q0.640625 -1.171875 1.671875 -1.875q1.046875 -0.703125 2.34375 -1.0625q0.953125 -0.265625 2.890625 -0.5q3.9375 -0.46875 5.796875 -1.109375q0.015625 -0.671875 0.015625 -0.859375q0 -1.984375 -0.921875 -2.796875q-1.25 -1.09375 -3.703125 -1.09375q-2.296875 0 -3.390625 0.796875q-1.09375 0.796875 -1.609375 2.84375l-3.1875 -0.4375q0.4375 -2.03125 1.421875 -3.28125q1.0 -1.265625 2.875 -1.9375q1.890625 -0.6875 4.359375 -0.6875q2.46875 0 4.0 0.578125q1.53125 0.578125 2.25 1.453125q0.734375 0.875 1.015625 2.21875q0.15625 0.828125 0.15625 3.0l0 4.328125q0 4.546875 0.203125 5.75q0.21875 1.1875 0.828125 2.296875l-3.390625 0q-0.5 -1.015625 -0.65625 -2.359375zm-0.265625 -7.265625q-1.765625 0.71875 -5.3125 1.21875q-2.0 0.296875 -2.84375 0.65625q-0.828125 0.359375 -1.28125 1.0625q-0.4375 0.6875 -0.4375 1.53125q0 1.3125 0.984375 2.1875q0.984375 0.859375 2.875 0.859375q1.875 0 3.34375 -0.828125q1.46875 -0.828125 2.15625 -2.25q0.515625 -1.09375 0.515625 -3.25l0 -1.1875zm8.432007 9.625l0 -26.484375l3.265625 0l0 26.484375l-3.265625 0zm21.511902 -6.171875l3.359375 0.40625q-0.796875 2.953125 -2.953125 4.578125q-2.140625 1.625 -5.484375 1.625q-4.21875 0 -6.6875 -2.59375q-2.453125 -2.59375 -2.453125 -7.28125q0 -4.828125 2.484375 -7.5q2.5 -2.6875 6.46875 -2.6875q3.859375 0 6.296875 2.625q2.4375 2.625 2.4375 7.375q0 0.28125 -0.015625 0.859375l-14.3125 0q0.171875 3.171875 1.78125 4.859375q1.609375 1.671875 4.015625 1.671875q1.78125 0 3.046875 -0.9375q1.265625 -0.953125 2.015625 -3.0zm-10.6875 -5.265625l10.71875 0q-0.21875 -2.421875 -1.234375 -3.625q-1.546875 -1.890625 -4.015625 -1.890625q-2.25 0 -3.78125 1.5q-1.515625 1.5 -1.6875 4.015625z" fill-rule="nonzero"></path><path fill="#990000" d="m734.98425 657.0l368.0 0l0 65.00787l-368.0 0z" fill-rule="evenodd"></path><path fill="#ffffff" d="m751.05493 702.84393l0 -16.65625l-2.875 0l0 -2.53125l2.875 0l0 -2.046875q0 -1.921875 0.34375 -2.859375q0.46875 -1.265625 1.640625 -2.046875q1.1875 -0.796875 3.328125 -0.796875q1.375 0 3.03125 0.328125l-0.484375 2.828125q-1.015625 -0.171875 -1.921875 -0.171875q-1.484375 0 -2.09375 0.640625q-0.609375 0.625 -0.609375 2.359375l0 1.765625l3.734375 0l0 2.53125l-3.734375 0l0 16.65625l-3.234375 0zm9.558472 0l0 -19.1875l2.921875 0l0 2.90625q1.125 -2.03125 2.0625 -2.6875q0.953125 -0.65625 2.09375 -0.65625q1.640625 0 3.34375 1.046875l-1.125 3.015625q-1.1875 -0.703125 -2.375 -0.703125q-1.078125 0 -1.921875 0.640625q-0.84375 0.640625 -1.203125 1.78125q-0.546875 1.734375 -0.546875 3.796875l0 10.046875l-3.25 0zm11.258667 -9.59375q0 -5.328125 2.953125 -7.890625q2.484375 -2.140625 6.03125 -2.140625q3.96875 0 6.46875 2.59375q2.515625 2.59375 2.515625 7.171875q0 3.703125 -1.109375 5.828125q-1.109375 2.109375 -3.234375 3.296875q-2.125 1.171875 -4.640625 1.171875q-4.015625 0 -6.5 -2.578125q-2.484375 -2.59375 -2.484375 -7.453125zm3.34375 0q0 3.6875 1.59375 5.53125q1.609375 1.828125 4.046875 1.828125q2.421875 0 4.03125 -1.84375q1.609375 -1.84375 1.609375 -5.625q0 -3.5625 -1.625 -5.390625q-1.609375 -1.828125 -4.015625 -1.828125q-2.4375 0 -4.046875 1.828125q-1.59375 1.8125 -1.59375 5.5zm18.619507 9.59375l0 -19.1875l2.90625 0l0 2.6875q0.90625 -1.40625 2.40625 -2.265625q1.5 -0.859375 3.421875 -0.859375q2.125 0 3.484375 0.890625q1.375 0.890625 1.921875 2.46875q2.28125 -3.359375 5.9375 -3.359375q2.84375 0 4.375 1.59375q1.546875 1.578125 1.546875 4.859375l0 13.171875l-3.234375 0l0 -12.09375q0 -1.9375 -0.3125 -2.796875q-0.3125 -0.859375 -1.15625 -1.375q-0.828125 -0.53125 -1.953125 -0.53125q-2.015625 0 -3.359375 1.34375q-1.328125 1.34375 -1.328125 4.3125l0 11.140625l-3.25 0l0 -12.46875q0 -2.171875 -0.796875 -3.25q-0.796875 -1.078125 -2.609375 -1.078125q-1.375 0 -2.546875 0.71875q-1.15625 0.71875 -1.6875 2.109375q-0.515625 1.390625 -0.515625 4.015625l0 9.953125l-3.25 0zm31.57904 0l0 -26.484375l19.15625 0l0 3.125l-15.640625 0l0 8.109375l14.640625 0l0 3.109375l-14.640625 0l0 9.015625l16.25 0l0 3.125l-19.765625 0zm23.116272 -5.734375l3.21875 -0.5q0.265625 1.9375 1.5 2.96875q1.234375 1.03125 3.46875 1.03125q2.234375 0 3.3125 -0.90625q1.09375 -0.921875 1.09375 -2.15625q0 -1.09375 -0.96875 -1.734375q-0.65625 -0.4375 -3.3125 -1.09375q-3.578125 -0.90625 -4.96875 -1.5625q-1.375 -0.671875 -2.09375 -1.828125q-0.703125 -1.171875 -0.703125 -2.578125q0 -1.28125 0.578125 -2.375q0.59375 -1.09375 1.59375 -1.8125q0.765625 -0.5625 2.078125 -0.953125q1.3125 -0.390625 2.8125 -0.390625q2.25 0 3.953125 0.65625q1.71875 0.65625 2.53125 1.765625q0.8125 1.109375 1.109375 2.96875l-3.171875 0.4375q-0.21875 -1.484375 -1.265625 -2.3125q-1.03125 -0.84375 -2.921875 -0.84375q-2.25 0 -3.203125 0.75q-0.953125 0.734375 -0.953125 1.734375q0 0.625 0.390625 1.140625q0.40625 0.515625 1.25 0.859375q0.484375 0.1875 2.875 0.828125q3.453125 0.921875 4.8125 1.515625q1.359375 0.578125 2.140625 1.703125q0.78125 1.125 0.78125 2.78125q0 1.625 -0.953125 3.0625q-0.953125 1.4375 -2.75 2.234375q-1.78125 0.78125 -4.03125 0.78125q-3.75 0 -5.703125 -1.546875q-1.953125 -1.5625 -2.5 -4.625zm27.070312 2.828125l0.46875 2.875q-1.375 0.28125 -2.46875 0.28125q-1.765625 0 -2.75 -0.5625q-0.96875 -0.5625 -1.375 -1.46875q-0.390625 -0.90625 -0.390625 -3.84375l0 -11.03125l-2.375 0l0 -2.53125l2.375 0l0 -4.75l3.234375 -1.953125l0 6.703125l3.28125 0l0 2.53125l-3.28125 0l0 11.21875q0 1.390625 0.171875 1.796875q0.171875 0.390625 0.5625 0.625q0.390625 0.234375 1.109375 0.234375q0.546875 0 1.4375 -0.125zm3.2772217 -19.84375l0 -3.734375l3.25 0l0 3.734375l-3.25 0zm0 22.75l0 -19.1875l3.25 0l0 19.1875l-3.25 0zm8.277527 0l0 -19.1875l2.90625 0l0 2.6875q0.90625 -1.40625 2.40625 -2.265625q1.5 -0.859375 3.421875 -0.859375q2.125 0 3.484375 0.890625q1.375 0.890625 1.921875 2.46875q2.28125 -3.359375 5.9375 -3.359375q2.84375 0 4.375 1.59375q1.546875 1.578125 1.546875 4.859375l0 13.171875l-3.234375 0l0 -12.09375q0 -1.9375 -0.3125 -2.796875q-0.3125 -0.859375 -1.15625 -1.375q-0.828125 -0.53125 -1.953125 -0.53125q-2.015625 0 -3.359375 1.34375q-1.328125 1.34375 -1.328125 4.3125l0 11.140625l-3.25 0l0 -12.46875q0 -2.171875 -0.796875 -3.25q-0.796875 -1.078125 -2.609375 -1.078125q-1.375 0 -2.546875 0.71875q-1.15625 0.71875 -1.6875 2.109375q-0.515625 1.390625 -0.515625 4.015625l0 9.953125l-3.25 0zm43.61023 -2.359375q-1.796875 1.53125 -3.46875 2.171875q-1.671875 0.625 -3.59375 0.625q-3.15625 0 -4.859375 -1.546875q-1.6875 -1.546875 -1.6875 -3.953125q0 -1.40625 0.640625 -2.5625q0.640625 -1.171875 1.671875 -1.875q1.046875 -0.703125 2.34375 -1.0625q0.953125 -0.265625 2.890625 -0.5q3.9375 -0.46875 5.796875 -1.109375q0.015625 -0.671875 0.015625 -0.859375q0 -1.984375 -0.921875 -2.796875q-1.25 -1.09375 -3.703125 -1.09375q-2.296875 0 -3.390625 0.796875q-1.09375 0.796875 -1.609375 2.84375l-3.1875 -0.4375q0.4375 -2.03125 1.421875 -3.28125q1.0 -1.265625 2.875 -1.9375q1.890625 -0.6875 4.359375 -0.6875q2.46875 0 4.0 0.578125q1.53125 0.578125 2.25 1.453125q0.734375 0.875 1.015625 2.21875q0.15625 0.828125 0.15625 3.0l0 4.328125q0 4.546875 0.203125 5.75q0.21875 1.1875 0.828125 2.296875l-3.390625 0q-0.5 -1.015625 -0.65625 -2.359375zm-0.265625 -7.265625q-1.765625 0.71875 -5.3125 1.21875q-2.0 0.296875 -2.84375 0.65625q-0.828125 0.359375 -1.28125 1.0625q-0.4375 0.6875 -0.4375 1.53125q0 1.3125 0.984375 2.1875q0.984375 0.859375 2.875 0.859375q1.875 0 3.34375 -0.828125q1.46875 -0.828125 2.15625 -2.25q0.515625 -1.09375 0.515625 -3.25l0 -1.1875zm15.619507 6.71875l0.46875 2.875q-1.375 0.28125 -2.46875 0.28125q-1.765625 0 -2.75 -0.5625q-0.96875 -0.5625 -1.375 -1.46875q-0.390625 -0.90625 -0.390625 -3.84375l0 -11.03125l-2.375 0l0 -2.53125l2.375 0l0 -4.75l3.234375 -1.953125l0 6.703125l3.28125 0l0 2.53125l-3.28125 0l0 11.21875q0 1.390625 0.171875 1.796875q0.171875 0.390625 0.5625 0.625q0.390625 0.234375 1.109375 0.234375q0.546875 0 1.4375 -0.125zm3.2772217 -19.84375l0 -3.734375l3.25 0l0 3.734375l-3.25 0zm0 22.75l0 -19.1875l3.25 0l0 19.1875l-3.25 0zm7.074341 -9.59375q0 -5.328125 2.953125 -7.890625q2.484375 -2.140625 6.03125 -2.140625q3.96875 0 6.46875 2.59375q2.515625 2.59375 2.515625 7.171875q0 3.703125 -1.109375 5.828125q-1.109375 2.109375 -3.234375 3.296875q-2.125 1.171875 -4.640625 1.171875q-4.015625 0 -6.5 -2.578125q-2.484375 -2.59375 -2.484375 -7.453125zm3.34375 0q0 3.6875 1.59375 5.53125q1.609375 1.828125 4.046875 1.828125q2.421875 0 4.03125 -1.84375q1.609375 -1.84375 1.609375 -5.625q0 -3.5625 -1.625 -5.390625q-1.609375 -1.828125 -4.015625 -1.828125q-2.4375 0 -4.046875 1.828125q-1.59375 1.8125 -1.59375 5.5zm18.619507 9.59375l0 -19.1875l2.921875 0l0 2.734375q2.125 -3.171875 6.109375 -3.171875q1.734375 0 3.1875 0.625q1.453125 0.625 2.171875 1.640625q0.734375 1.015625 1.015625 2.40625q0.1875 0.890625 0.1875 3.15625l0 11.796875l-3.25 0l0 -11.671875q0 -1.984375 -0.390625 -2.96875q-0.375 -0.984375 -1.34375 -1.5625q-0.953125 -0.59375 -2.265625 -0.59375q-2.078125 0 -3.59375 1.3125q-1.5 1.3125 -1.5 5.0l0 10.484375l-3.25 0zm19.978882 -8.515625l3.3125 -0.28125q0.234375 1.984375 1.09375 3.265625q0.859375 1.265625 2.65625 2.0625q1.8125 0.78125 4.078125 0.78125q2.0 0 3.53125 -0.59375q1.546875 -0.609375 2.296875 -1.640625q0.75 -1.046875 0.75 -2.265625q0 -1.25 -0.734375 -2.171875q-0.71875 -0.9375 -2.375 -1.578125q-1.078125 -0.40625 -4.734375 -1.28125q-3.640625 -0.875 -5.09375 -1.65625q-1.90625 -1.0 -2.84375 -2.46875q-0.921875 -1.46875 -0.921875 -3.296875q0 -2.0 1.140625 -3.734375q1.140625 -1.75 3.328125 -2.65625q2.1875 -0.90625 4.859375 -0.90625q2.9375 0 5.1875 0.953125q2.25 0.9375 3.453125 2.78125q1.21875 1.84375 1.3125 4.171875l-3.359375 0.265625q-0.28125 -2.515625 -1.84375 -3.796875q-1.5625 -1.28125 -4.609375 -1.28125q-3.171875 0 -4.640625 1.171875q-1.453125 1.15625 -1.453125 2.796875q0 1.421875 1.03125 2.34375q1.015625 0.921875 5.28125 1.890625q4.28125 0.96875 5.875 1.6875q2.3125 1.078125 3.40625 2.71875q1.109375 1.625 1.109375 3.75q0 2.125 -1.21875 4.0q-1.203125 1.859375 -3.46875 2.90625q-2.265625 1.03125 -5.109375 1.03125q-3.59375 0 -6.03125 -1.046875q-2.421875 -1.046875 -3.8125 -3.15625q-1.375 -2.109375 -1.453125 -4.765625zm38.194397 1.484375l3.203125 0.421875q-0.515625 3.296875 -2.6875 5.171875q-2.15625 1.875 -5.296875 1.875q-3.9375 0 -6.328125 -2.578125q-2.390564 -2.578125 -2.390564 -7.375q0 -3.109375 1.015564 -5.4375q1.03125 -2.34375 3.140625 -3.5q2.109375 -1.171875 4.578125 -1.171875q3.125 0 5.109375 1.59375q2.0 1.578125 2.546875 4.484375l-3.15625 0.484375q-0.453125 -1.9375 -1.609375 -2.90625q-1.140625 -0.984375 -2.765625 -0.984375q-2.453125 0 -4.0 1.765625q-1.53125 1.765625 -1.53125 5.578125q0 3.859375 1.484375 5.625q1.484375 1.75 3.875 1.75q1.90625 0 3.1875 -1.171875q1.28125 -1.1875 1.625 -3.625zm18.664062 4.671875q-1.796875 1.53125 -3.46875 2.171875q-1.671875 0.625 -3.59375 0.625q-3.15625 0 -4.859375 -1.546875q-1.6875 -1.546875 -1.6875 -3.953125q0 -1.40625 0.640625 -2.5625q0.640625 -1.171875 1.671875 -1.875q1.046875 -0.703125 2.34375 -1.0625q0.953125 -0.265625 2.890625 -0.5q3.9375 -0.46875 5.796875 -1.109375q0.015625 -0.671875 0.015625 -0.859375q0 -1.984375 -0.921875 -2.796875q-1.25 -1.09375 -3.703125 -1.09375q-2.296875 0 -3.390625 0.796875q-1.09375 0.796875 -1.609375 2.84375l-3.1875 -0.4375q0.4375 -2.03125 1.421875 -3.28125q1.0 -1.265625 2.875 -1.9375q1.890625 -0.6875 4.359375 -0.6875q2.46875 0 4.0 0.578125q1.53125 0.578125 2.25 1.453125q0.734375 0.875 1.015625 2.21875q0.15625 0.828125 0.15625 3.0l0 4.328125q0 4.546875 0.203125 5.75q0.21875 1.1875 0.828125 2.296875l-3.390625 0q-0.5 -1.015625 -0.65625 -2.359375zm-0.265625 -7.265625q-1.765625 0.71875 -5.3125 1.21875q-2.0 0.296875 -2.84375 0.65625q-0.828125 0.359375 -1.28125 1.0625q-0.4375 0.6875 -0.4375 1.53125q0 1.3125 0.984375 2.1875q0.984375 0.859375 2.875 0.859375q1.875 0 3.34375 -0.828125q1.46875 -0.828125 2.15625 -2.25q0.515625 -1.09375 0.515625 -3.25l0 -1.1875zm8.432007 9.625l0 -26.484375l3.265625 0l0 26.484375l-3.265625 0zm21.511963 -6.171875l3.359375 0.40625q-0.796875 2.953125 -2.953125 4.578125q-2.140625 1.625 -5.484375 1.625q-4.21875 0 -6.6875 -2.59375q-2.453125 -2.59375 -2.453125 -7.28125q0 -4.828125 2.484375 -7.5q2.5 -2.6875 6.46875 -2.6875q3.859375 0 6.296875 2.625q2.4375 2.625 2.4375 7.375q0 0.28125 -0.015625 0.859375l-14.3125 0q0.171875 3.171875 1.78125 4.859375q1.609375 1.671875 4.015625 1.671875q1.78125 0 3.046875 -0.9375q1.265625 -0.953125 2.015625 -3.0zm-10.6875 -5.265625l10.71875 0q-0.21875 -2.421875 -1.234375 -3.625q-1.546875 -1.890625 -4.015625 -1.890625q-2.25 0 -3.78125 1.5q-1.515625 1.5 -1.6875 4.015625z" fill-rule="nonzero"></path></g></svg>

